SplineFontDB: 3.2
FontName: meadowlark-icons
FullName: meadowlark icons
FamilyName: meadowlark-icons
Weight: Regular
Copyright: Copyright (c) 2022, Unknown
UComments: "2022-11-14: Created with FontForge (http://fontforge.org)"
Version: 001.000
ItalicAngle: 0
UnderlinePosition: -100
UnderlineWidth: 50
Ascent: 800
Descent: 200
InvalidEm: 0
LayerCount: 2
Layer: 0 0 "Back" 1
Layer: 1 0 "Fore" 0
XUID: [1021 224 983549854 5165256]
StyleMap: 0x0000
FSType: 0
OS2Version: 0
OS2_WeightWidthSlopeOnly: 0
OS2_UseTypoMetrics: 1
CreationTime: 1668458903
ModificationTime: 1673997746
OS2TypoAscent: 0
OS2TypoAOffset: 1
OS2TypoDescent: 0
OS2TypoDOffset: 1
OS2TypoLinegap: 90
OS2WinAscent: 0
OS2WinAOffset: 1
OS2WinDescent: 0
OS2WinDOffset: 1
HheadAscent: 0
HheadAOffset: 1
HheadDescent: 0
HheadDOffset: 1
OS2Vendor: 'PfEd'
MarkAttachClasses: 1
DEI: 91125
Encoding: ISO8859-1
UnicodeInterp: none
NameList: AGL For New Fonts
DisplaySize: -48
AntiAlias: 1
FitToEm: 0
WinInfo: 48 24 9
BeginPrivate: 0
EndPrivate
BeginChars: 256 45

StartChar: at
Encoding: 64 64 0
Width: 1000
Flags: H
LayerCount: 2
Fore
SplineSet
739.375 52.5 m 1
 725.625 52.0830078125 713.541992188 61.25 710.208007812 74.5830078125 c 0
 683.333007812 181.041992188 592.291992188 258.958007812 483.125 269.375 c 1
 483.125 236.666992188 l 2
 483.125 215.833007812 470.625 197.083007812 451.458007812 188.958007812 c 0
 430.625 179.375 406.041992188 182.916992188 388.958007812 197.916992188 c 2
 241.666992188 326.25 l 2
 220.208007812 344.583007812 217.5 376.875 235.833007812 398.541992188 c 0
 237.708007812 400.625 239.583007812 402.5 241.666992188 404.375 c 2
 388.958007812 533.125 l 2
 406.458007812 548.541992188 431.458007812 551.875 452.5 541.875 c 0
 471.666992188 533.75 484.166992188 515 484.166992188 494.166992188 c 2
 484.166992188 460 l 1
 648.125 447.291992188 775.208007812 311.458007812 776.875 147.083007812 c 0
 776.875 122.708007812 773.75 98.3330078125 767.916992188 74.5830078125 c 0
 764.583007812 61.25 752.5 52.0830078125 738.75 52.5 c 1
 739.375 52.5 l 1
EndSplineSet
EndChar

StartChar: A
Encoding: 65 65 1
Width: 1000
Flags: H
LayerCount: 2
Fore
SplineSet
260.625 547.5 m 1
 274.375 547.916992188 286.458007812 538.75 289.791992188 525.416992188 c 0
 316.666992188 418.958007812 407.708007812 341.041992188 516.875 330.625 c 1
 516.875 363.333007812 l 2
 516.875 384.166992188 529.375 402.916992188 548.541992188 411.041992188 c 0
 569.375 420.625 593.958007812 417.083007812 611.041992188 402.083007812 c 2
 758.333007812 273.75 l 2
 779.791992188 255.416992188 782.5 223.125 764.166992188 201.458007812 c 0
 762.291992188 199.375 760.416992188 197.5 758.333007812 195.625 c 2
 611.041992188 66.875 l 2
 593.541992188 51.4580078125 568.541992188 48.125 547.5 58.125 c 0
 528.333007812 66.25 515.833007812 85 515.833007812 105.833007812 c 2
 515.833007812 140 l 1
 351.875 152.708007812 224.791992188 288.541992188 223.125 452.916992188 c 0
 223.125 477.291992188 226.25 501.666992188 232.083007812 525.416992188 c 0
 235.416992188 538.75 247.5 547.916992188 261.25 547.5 c 1
 260.625 547.5 l 1
EndSplineSet
EndChar

StartChar: B
Encoding: 66 66 2
Width: 1000
Flags: H
LayerCount: 2
Fore
SplineSet
342.708007812 475.833007812 m 1
 342.708007812 605.208007812 l 1
 583.125 605.208007812 l 1
 583.125 475.833007812 l 1
 342.708007812 475.833007812 l 1
342.708007812 -5.2080078125 m 1
 342.708007812 161.25 l 1
 657.083007812 161.25 l 1
 657.083007812 -5.2080078125 l 1
 342.708007812 -5.2080078125 l 1
758.958007812 -5.2080078125 m 1
 758.958007812 -5 l 1
 712.708007812 -5 l 1
 712.708007812 189.166992188 l 2
 712.708007812 204.375 700.416992188 216.875 685 216.875 c 2
 315.208007812 216.875 l 2
 300 216.875 287.5 204.583007812 287.5 189.166992188 c 2
 287.5 -5 l 1
 241.25 -5 l 2
 215.833007812 -5 195 15.8330078125 195 41.25 c 2
 195 558.958007812 l 2
 195 584.375 215.833007812 605.208007812 241.25 605.208007812 c 2
 287.5 605.208007812 l 1
 287.5 447.916992188 l 2
 287.5 432.708007812 299.791992188 420.208007812 315.208007812 420.208007812 c 2
 611.041992188 420.208007812 l 2
 626.25 420.208007812 638.75 432.5 638.75 447.916992188 c 2
 638.75 599.166992188 l 1
 642.708007812 597.083007812 646.666992188 595 650 591.666992188 c 2
 791.666992188 450 l 2
 800.416992188 441.25 805.208007812 429.583007812 805.208007812 417.291992188 c 2
 805.208007812 41.0419921875 l 2
 805.208007812 15.625 784.375 -5.2080078125 758.958007812 -5.2080078125 c 1
EndSplineSet
EndChar

StartChar: C
Encoding: 67 67 3
Width: 1000
Flags: H
LayerCount: 2
Fore
SplineSet
237.291992188 300 m 0
 237.291992188 276.458007812 242.5 253.125 252.5 232.083007812 c 0
 258.541992188 219.791992188 253.541992188 204.791992188 241.666992188 198.75 c 0
 238.333007812 196.875 234.583007812 196.041992188 230.833007812 196.041992188 c 0
 228.125 196.041992188 225.625 196.458007812 223.125 197.291992188 c 0
 216.875 199.375 211.875 203.958007812 208.958007812 210 c 0
 160.833007812 310.208007812 200.625 432.083007812 297.708007812 481.875 c 0
 324.791992188 495.833007812 355 503.125 385.208007812 503.125 c 1
 385.208007812 503.125 l 1
 609.583007812 503.125 l 1
 609.583007812 555.833007812 l 2
 609.583007812 563.958007812 616.25 570.833007812 624.375 570.833007812 c 0
 627.916992188 570.833007812 631.25 569.583007812 633.958007812 567.083007812 c 2
 724.375 489.375 l 2
 727.708007812 486.666992188 729.583007812 482.291992188 729.583007812 477.916992188 c 0
 729.583007812 473.541992188 727.708007812 469.375 724.375 466.458007812 c 2
 633.958007812 388.75 l 2
 630.833007812 386.041992188 626.875 384.791992188 623.125 385.208007812 c 0
 619.166992188 385.625 615.625 387.5 613.125 390.625 c 0
 611.041992188 393.333007812 609.791992188 396.666992188 609.791992188 400.208007812 c 2
 609.791992188 452.916992188 l 1
 385.208007812 452.916992188 l 1
 385.208007812 452.916992188 l 1
 345.625 452.916992188 308.541992188 436.875 280.625 408.125 c 0
 252.708007812 379.375 237.291992188 340.833007812 237.291992188 300 c 0
791.041992188 390.208007812 m 0
 839.166992188 290 799.375 168.125 702.708007812 118.125 c 0
 675.625 104.166992188 645.416992188 96.875 615.208007812 96.875 c 0
 615 96.875 615 96.875 615 96.875 c 1
 390.416992188 96.875 l 1
 390.416992188 44.1669921875 l 2
 390.416992188 35.8330078125 383.75 29.1669921875 375.625 29.1669921875 c 0
 372.083007812 29.1669921875 368.75 30.4169921875 366.25 32.7080078125 c 2
 275.833007812 110.416992188 l 2
 269.583007812 115.833007812 268.75 125.416992188 273.958007812 131.666992188 c 0
 274.583007812 132.291992188 275.208007812 132.916992188 275.833007812 133.541992188 c 2
 366.25 211.25 l 2
 369.375 213.958007812 373.125 215.208007812 377.083007812 214.791992188 c 0
 381.041992188 214.375 384.583007812 212.5 387.083007812 209.375 c 0
 389.166992188 206.666992188 390.416992188 203.333007812 390.416992188 199.791992188 c 2
 390.416992188 147.083007812 l 1
 614.791992188 147.083007812 l 1
 614.791992188 147.083007812 l 1
 696.25 147.083007812 762.708007812 215.625 762.708007812 300 c 0
 762.708007812 323.541992188 757.5 347.083007812 747.291992188 368.125 c 0
 741.875 379.375 745.625 392.916992188 755.416992188 399.791992188 c 2
 755.416992188 400 l 1
 758.333007812 401.458007812 l 2
 764.166992188 404.583007812 770.833007812 405 776.875 402.916992188 c 0
 783.125 400.833007812 788.125 396.25 791.041992188 390.208007812 c 0
EndSplineSet
EndChar

StartChar: D
Encoding: 68 68 4
Width: 1000
Flags: H
LayerCount: 2
Fore
SplineSet
684.375 52.5 m 2
 276.041992188 52.5 l 2
 252.083007812 52.5 232.708007812 71.875 232.708007812 95.8330078125 c 2
 232.708007812 504.166992188 l 2
 232.708007812 528.125 252.083007812 547.5 276.041992188 547.5 c 2
 684.375 547.5 l 2
 708.333007812 547.5 727.708007812 528.125 727.708007812 504.166992188 c 2
 727.708007812 95.8330078125 l 2
 727.916992188 71.875 708.333007812 52.5 684.375 52.5 c 2
EndSplineSet
EndChar

StartChar: E
Encoding: 69 69 5
Width: 1000
Flags: H
LayerCount: 2
Fore
SplineSet
815.625 300 m 1
 192.5 52.2919921875 l 1
 192.5 547.708007812 l 1
 815.625 300 l 1
EndSplineSet
EndChar

StartChar: F
Encoding: 70 70 6
Width: 1000
Flags: H
LayerCount: 2
Fore
SplineSet
375 581.25 m 0
 392.247070312 581.25 406.25 567.247070312 406.25 550 c 2
 406.25 50 l 2
 406.25 32.7529296875 392.247070312 18.75 375 18.75 c 0
 357.752929688 18.75 343.75 32.7529296875 343.75 50 c 2
 343.75 550 l 2
 343.75 567.247070312 357.752929688 581.25 375 581.25 c 0
625 581.25 m 0
 642.247070312 581.25 656.25 567.247070312 656.25 550 c 2
 656.25 50 l 2
 656.25 32.7529296875 642.247070312 18.75 625 18.75 c 0
 607.752929688 18.75 593.75 32.7529296875 593.75 50 c 2
 593.75 550 l 2
 593.75 567.247070312 607.752929688 581.25 625 581.25 c 0
EndSplineSet
EndChar

StartChar: G
Encoding: 71 71 7
Width: 1000
Flags: H
LayerCount: 2
Fore
SplineSet
500 -12.5 m 0
 327.526367188 -12.5 187.5 127.526367188 187.5 300 c 0
 187.5 472.473632812 327.526367188 612.5 500 612.5 c 0
 672.473632812 612.5 812.5 472.473632812 812.5 300 c 0
 812.5 127.526367188 672.473632812 -12.5 500 -12.5 c 0
EndSplineSet
EndChar

StartChar: H
Encoding: 72 72 8
Width: 1000
Flags: H
LayerCount: 2
Fore
SplineSet
500 50 m 0
 637.978515625 50 750 162.021484375 750 300 c 0
 750 437.978515625 637.978515625 550 500 550 c 0
 362.021484375 550 250 437.978515625 250 300 c 0
 250 162.021484375 362.021484375 50 500 50 c 0
500 -12.5 m 0
 327.526367188 -12.5 187.5 127.526367188 187.5 300 c 0
 187.5 472.473632812 327.526367188 612.5 500 612.5 c 0
 672.473632812 612.5 812.5 472.473632812 812.5 300 c 0
 812.5 127.526367188 672.473632812 -12.5 500 -12.5 c 0
625 300 m 0
 625 231.010742188 568.989257812 175 500 175 c 0
 431.010742188 175 375 231.010742188 375 300 c 0
 375 368.989257812 431.010742188 425 500 425 c 0
 568.989257812 425 625 368.989257812 625 300 c 0
EndSplineSet
EndChar

StartChar: I
Encoding: 73 73 9
Width: 1000
Flags: H
LayerCount: 2
Fore
SplineSet
193.125 417.083007812 m 1
 193.125 485 l 1
 806.875 485 l 1
 806.875 417.083007812 l 1
 193.125 417.083007812 l 1
193.125 266.041992188 m 1
 193.125 333.958007812 l 1
 806.875 333.958007812 l 1
 806.875 266.041992188 l 1
 193.125 266.041992188 l 1
193.125 115.208007812 m 1
 193.125 183.125 l 1
 806.875 183.125 l 1
 806.875 115.208007812 l 1
 193.125 115.208007812 l 1
EndSplineSet
EndChar

StartChar: J
Encoding: 74 74 10
Width: 1000
Flags: H
LayerCount: 2
Fore
SplineSet
614.25 612.5 m 2
 863.125 612.5 l 2
 932.114257812 612.5 988.125 556.489257812 988.125 487.5 c 0
 988.125 483.64453125 987.966796875 479.954101562 987.625 476.1875 c 0
 987.607421875 476.063476562 947.8125 38.6875 947.8125 38.6875 c 2
 942.03125 -24.9345703125 888.486328125 -74.974609375 823.375 -75 c 1
 823.379882812 -74.8759765625 176.5625 -75 176.5625 -75 c 2
 111.451171875 -74.974609375 57.90625 -24.9345703125 52.125 38.6875 c 1
 52.1298828125 38.5634765625 12.3125 476.1875 12.3125 476.1875 c 2
 11.9638671875 479.98046875 11.78515625 483.821289062 11.78515625 487.705078125 c 0
 11.78515625 513.810546875 19.921875 538.046875 33.6875 558.0625 c 1
 33.6123046875 558.064453125 31.25 612.5 31.25 612.5 c 2
 31.25 681.489257812 87.2607421875 737.5 156.25 737.5 c 2
 385.75 737.5 l 2
 420.241210938 737.4921875 451.50390625 723.502929688 474.125 700.875 c 1
 474.107421875 700.857421875 525.875 649.125 525.875 649.125 c 2
 548.49609375 626.497070312 579.758789062 612.5078125 614.25 612.5 c 2
94.125 605 m 0
 107.5 609.875 121.875 612.5 136.875 612.5 c 2
 474.125 612.5 l 1
 429.9375 656.6875 l 2
 418.626953125 668.001953125 402.995117188 674.99609375 385.75 675 c 1
 385.758789062 675.008789062 156.25 675 156.25 675 c 1
 156.23828125 675 l 2
 122.147460938 675 94.39453125 647.625 93.75 613.6875 c 1
 93.75 613.708007812 94.125 605 94.125 605 c 0
EndSplineSet
EndChar

StartChar: K
Encoding: 75 75 11
Width: 1000
Flags: H
LayerCount: 2
Fore
SplineSet
250 800 m 2
 580.8125 800 l 2
 598.057617188 799.99609375 613.689453125 793.001953125 625 781.6875 c 1
 624.991210938 781.678710938 856.6875 550 856.6875 550 c 2
 868.001953125 538.689453125 874.99609375 523.057617188 875 505.8125 c 1
 875.008789062 505.821289062 875 -75 875 -75 c 2
 875 -143.989257812 818.989257812 -200 750 -200 c 2
 250 -200 l 2
 181.010742188 -200 125 -143.989257812 125 -75 c 2
 125 675 l 2
 125 743.989257812 181.010742188 800 250 800 c 2
593.75 706.25 m 1
 593.75 581.25 l 2
 593.75 546.754882812 621.754882812 518.75 656.25 518.75 c 2
 781.25 518.75 l 1
 593.75 706.25 l 1
EndSplineSet
EndChar

StartChar: L
Encoding: 76 76 12
Width: 1000
Flags: H
LayerCount: 2
Fore
SplineSet
580.8125 800 m 2
 598.057617188 799.99609375 613.689453125 793.001953125 625 781.6875 c 2
 625 781.6875 856.678710938 549.991210938 856.6875 550 c 1
 868.001953125 538.689453125 874.99609375 523.057617188 875 505.8125 c 2
 875 -75 l 2
 875 -143.989257812 818.989257812 -200 750 -200 c 2
 250 -200 l 2
 181.010742188 -200 125 -143.989257812 125 -75 c 2
 125 675 l 2
 125 743.989257812 181.010742188 800 250 800 c 2
 580.8125 800 l 2
593.75 581.25 m 2
 593.75 546.754882812 621.754882812 518.75 656.25 518.75 c 2
 781.25 518.75 l 1
 593.75 706.25 l 1
 593.75 581.25 l 2
687.5 385 m 2
 687.499023438 419.494140625 659.521484375 447.493164062 625.02734375 447.493164062 c 0
 619.780273438 447.493164062 614.68359375 446.845703125 609.8125 445.625 c 2
 609.8125 445.625 547.28515625 430.004882812 547.3125 430 c 1
 520.161132812 423.198242188 500.000976562 398.622070312 500 369.375 c 2
 500 100.25 l 1
 481.25 108.25 459.75 112.5 437.5 112.5 c 0
 406.3125 112.5 376.625 104.125 353.875 88.9375 c 0
 331.3125 73.9375 312.5 49.6875 312.5 18.75 c 0
 312.5 -12.1875 331.375 -36.4375 353.875 -51.4375 c 0
 376.625 -66.625 406.25 -75 437.5 -75 c 0
 468.6875 -75 498.375 -66.625 521.125 -51.4375 c 0
 543.6875 -36.4375 562.5 -12.1875 562.5 18.75 c 2
 562.5 244.375 l 1
 687.5 275.625 l 1
 687.5 385 l 2
EndSplineSet
EndChar

StartChar: M
Encoding: 77 77 13
Width: 1000
Flags: H
LayerCount: 2
Fore
SplineSet
733.875 153.5 m 1
 733.875 153.5 733.828125 153.603515625 733.875 153.5625 c 0
 736.444335938 151.649414062 738.815429688 149.586914062 741.0625 147.3125 c 2
 741.0625 147.3125 981.669921875 -93.330078125 981.6875 -93.3125 c 1
 992.994140625 -104.626953125 999.97265625 -120.265625 999.97265625 -137.508789062 c 0
 999.97265625 -172.010742188 971.961914062 -200.021484375 937.459960938 -200.021484375 c 0
 920.201171875 -200.021484375 904.56640625 -193.01171875 893.25 -181.6875 c 2
 652.625 58.9375 l 2
 650.375 61.25 648.375 63.625 646.5 66.125 c 1
 646.5 66.125 646 65.5625 646.5625 66.125 c 1
 579.297851562 16.7578125 495.741210938 -12.9736328125 405.98828125 -12.9736328125 c 0
 181.7734375 -12.9736328125 -0.26171875 169.060546875 -0.26171875 393.276367188 c 0
 -0.26171875 617.491210938 181.7734375 799.526367188 405.98828125 799.526367188 c 0
 630.204101562 799.526367188 812.23828125 617.491210938 812.23828125 393.276367188 c 0
 812.23828125 303.627929688 783.137695312 220.72265625 733.875 153.5 c 1
750 393.75 m 0
 750 583.470703125 595.970703125 737.5 406.25 737.5 c 0
 216.529296875 737.5 62.5 583.470703125 62.5 393.75 c 0
 62.5 204.029296875 216.529296875 50 406.25 50 c 0
 595.970703125 50 750 204.029296875 750 393.75 c 0
EndSplineSet
EndChar

StartChar: N
Encoding: 78 78 14
Width: 1000
Flags: H
LayerCount: 2
Fore
SplineSet
93.75 706.25 m 2
 93.75 723.497070312 107.752929688 737.5 125 737.5 c 2
 875 737.5 l 2
 892.247070312 737.5 906.25 723.497070312 906.25 706.25 c 2
 906.25 581.25 l 2
 906.249023438 573.235351562 903.219726562 565.908203125 898.25 560.375 c 1
 898.25390625 560.388671875 625 256.75 625 256.75 c 1
 625 -43.75 l 2
 624.989257812 -57.5380859375 616.03515625 -69.2421875 603.625 -73.375 c 0
 603.620117188 -73.3828125 416.125 -135.875 416.125 -135.875 c 2
 413.022460938 -136.908203125 409.703125 -137.467773438 406.254882812 -137.467773438 c 0
 389.015625 -137.467773438 375.012695312 -123.486328125 375 -106.25 c 0
 375.004882812 -106.2421875 375 256.75 375 256.75 c 1
 101.75 560.375 l 2
 96.7802734375 565.908203125 93.7509765625 573.235351562 93.75 581.25 c 1
 93.75390625 581.236328125 93.75 706.25 93.75 706.25 c 2
EndSplineSet
EndChar

StartChar: O
Encoding: 79 79 15
Width: 1000
Flags: H
LayerCount: 2
Fore
SplineSet
531.25 675 m 0
 548.497070312 675 562.5 660.997070312 562.5 643.75 c 2
 562.5 -43.75 l 2
 562.5 -60.9970703125 548.497070312 -75 531.25 -75 c 0
 514.002929688 -75 500 -60.9970703125 500 -43.75 c 2
 500 643.75 l 2
 500 660.997070312 514.002929688 675 531.25 675 c 0
406.25 550 m 0
 423.497070312 550 437.5 535.997070312 437.5 518.75 c 2
 437.5 81.25 l 2
 437.5 64.0029296875 423.497070312 50 406.25 50 c 0
 389.002929688 50 375 64.0029296875 375 81.25 c 2
 375 518.75 l 2
 375 535.997070312 389.002929688 550 406.25 550 c 0
656.25 550 m 0
 673.497070312 550 687.5 535.997070312 687.5 518.75 c 2
 687.5 81.25 l 2
 687.5 64.0029296875 673.497070312 50 656.25 50 c 0
 639.002929688 50 625 64.0029296875 625 81.25 c 2
 625 518.75 l 2
 625 535.997070312 639.002929688 550 656.25 550 c 0
281.25 456.25 m 0
 298.497070312 456.25 312.5 442.247070312 312.5 425 c 2
 312.5 175 l 2
 312.5 157.752929688 298.497070312 143.75 281.25 143.75 c 0
 264.002929688 143.75 250 157.752929688 250 175 c 2
 250 425 l 2
 250 442.247070312 264.002929688 456.25 281.25 456.25 c 0
781.25 456.25 m 0
 798.497070312 456.25 812.5 442.247070312 812.5 425 c 2
 812.5 175 l 2
 812.5 157.752929688 798.497070312 143.75 781.25 143.75 c 0
 764.002929688 143.75 750 157.752929688 750 175 c 2
 750 425 l 2
 750 442.247070312 764.002929688 456.25 781.25 456.25 c 0
156.25 393.75 m 0
 173.497070312 393.75 187.5 379.747070312 187.5 362.5 c 2
 187.5 237.5 l 2
 187.5 220.252929688 173.497070312 206.25 156.25 206.25 c 0
 139.002929688 206.25 125 220.252929688 125 237.5 c 2
 125 362.5 l 2
 125 379.747070312 139.002929688 393.75 156.25 393.75 c 0
906.25 393.75 m 0
 923.497070312 393.75 937.5 379.747070312 937.5 362.5 c 2
 937.5 237.5 l 2
 937.5 220.252929688 923.497070312 206.25 906.25 206.25 c 0
 889.002929688 206.25 875 220.252929688 875 237.5 c 2
 875 362.5 l 2
 875 379.747070312 889.002929688 393.75 906.25 393.75 c 0
EndSplineSet
EndChar

StartChar: P
Encoding: 80 80 16
Width: 1000
Flags: H
LayerCount: 2
Fore
SplineSet
928.690429688 710.828125 m 2
 956.295898438 710.828125 978.379882812 688.744140625 978.379882812 661.139648438 c 2
 978.379882812 -61.1396484375 l 2
 978.379882812 -88.419921875 956.295898438 -110.828125 928.690429688 -110.828125 c 2
 71.3095703125 -110.828125 l 2
 44.029296875 -110.828125 21.6201171875 -88.744140625 21.6201171875 -61.1396484375 c 2
 21.6201171875 661.139648438 l 2
 21.6201171875 688.419921875 43.7041015625 710.828125 71.3095703125 710.828125 c 2
 170.6875 710.828125 l 1
 170.6875 141.838867188 l 2
 170.6875 114.55859375 192.771484375 92.150390625 220.376953125 92.150390625 c 2
 291.500976562 92.150390625 l 2
 318.78125 92.150390625 341.189453125 114.234375 341.189453125 141.838867188 c 2
 341.189453125 710.828125 l 1
 414.586914062 710.828125 l 1
 414.586914062 141.838867188 l 2
 414.586914062 114.55859375 436.670898438 92.150390625 464.275390625 92.150390625 c 2
 536.374023438 92.150390625 l 2
 563.654296875 92.150390625 586.0625 114.234375 586.0625 141.838867188 c 2
 586.0625 710.828125 l 1
 659.459960938 710.828125 l 1
 659.459960938 141.838867188 l 2
 659.459960938 114.55859375 681.543945312 92.150390625 709.149414062 92.150390625 c 2
 780.272460938 92.150390625 l 2
 807.552734375 92.150390625 829.961914062 114.234375 829.961914062 141.838867188 c 2
 829.961914062 710.828125 l 1
 928.690429688 710.828125 l 2
EndSplineSet
EndChar

StartChar: Q
Encoding: 81 81 17
Width: 1000
Flags: H
LayerCount: 2
Fore
SplineSet
37.6591796875 638.177734375 m 1
 162.989257812 512.846679688 l 1
 265.840820312 534.155273438 l 1
 287.149414062 637.065429688 l 1
 287.149414062 637.065429688 161.741210938 762.528320312 161.818359375 762.454101562 c 0
 176.267578125 766.298828125 191.3671875 768.421875 207.01953125 768.421875 c 0
 304.073242188 768.421875 382.868164062 689.626953125 382.868164062 592.573242188 c 0
 382.868164062 576.805664062 380.788085938 561.51953125 376.887695312 546.974609375 c 2
 376.887695312 546.974609375 742.844726562 175.813476562 742.869140625 175.784179688 c 0
 758.598632812 180.412109375 775.216796875 182.92578125 792.435546875 182.92578125 c 0
 889.360351562 182.92578125 968.05078125 104.235351562 968.05078125 7.310546875 c 0
 968.05078125 -89.5302734375 889.495117188 -168.168945312 792.685546875 -168.303710938 c 0
 695.712890625 -168.24609375 617.029296875 -89.51953125 617.029296875 7.466796875 c 0
 617.029296875 24.7099609375 619.517578125 41.3759765625 624.153320312 57.126953125 c 2
 624.153320312 57.126953125 253.038085938 423.030273438 252.962890625 423.108398438 c 0
 238.474609375 419.240234375 223.327148438 417.100585938 207.626953125 417.100585938 c 0
 110.573242188 417.100585938 31.7783203125 495.896484375 31.7783203125 592.950195312 c 0
 31.7783203125 608.583984375 33.8232421875 623.744140625 37.6591796875 638.177734375 c 1
820.315429688 110.220703125 m 1
 820.256835938 110.220703125 l 1
 792.685546875 124.387695312 l 1
 765.11328125 110.220703125 l 1
 734.147460938 108.69921875 l 1
 717.346679688 82.6494140625 l 1
 691.296875 65.849609375 l 1
 689.775390625 34.8828125 l 1
 675.609375 7.310546875 l 1
 689.775390625 -20.2607421875 l 1
 691.296875 -51.2275390625 l 1
 717.346679688 -68.02734375 l 1
 734.147460938 -94.0771484375 l 1
 765.11328125 -95.599609375 l 1
 792.685546875 -109.765625 l 1
 820.256835938 -95.599609375 l 1
 851.223632812 -94.0771484375 l 1
 868.024414062 -68.02734375 l 1
 894.073242188 -51.2275390625 l 1
 895.595703125 -20.2607421875 l 1
 909.76171875 7.310546875 l 1
 895.595703125 34.8828125 l 1
 894.073242188 65.849609375 l 1
 868.024414062 82.6494140625 l 1
 851.223632812 108.69921875 l 1
 820.315429688 110.220703125 l 1
EndSplineSet
EndChar

StartChar: R
Encoding: 82 82 18
Width: 1000
Flags: H
LayerCount: 2
Fore
SplineSet
734.666015625 706.287109375 m 1
 969.013671875 300 l 1
 734.666015625 -106.287109375 l 1
 265.65234375 -106.287109375 l 1
 30.986328125 300 l 1
 265.333984375 706.287109375 l 1
 734.666015625 706.287109375 l 1
500 13.751953125 m 0
 658.248046875 13.751953125 786.248046875 141.751953125 786.248046875 300 c 0
 786.248046875 457.9296875 658.248046875 586.248046875 500 586.248046875 c 0
 342.0703125 586.248046875 213.751953125 458.248046875 213.751953125 300 c 0
 213.751953125 142.0703125 341.751953125 13.751953125 500 13.751953125 c 0
440.139648438 300 m 0
 440.139648438 333.059570312 466.940429688 359.860351562 500 359.860351562 c 0
 533.059570312 359.860351562 559.860351562 333.059570312 559.860351562 300 c 0
 559.860351562 266.940429688 533.059570312 240.139648438 500 240.139648438 c 0
 466.940429688 240.139648438 440.139648438 266.940429688 440.139648438 300 c 0
EndSplineSet
EndChar

StartChar: S
Encoding: 83 83 19
Width: 1000
Flags: H
LayerCount: 2
Fore
SplineSet
333.333007812 707.71484375 m 2
 666.666992188 707.71484375 l 2
 822.415039062 707.71484375 949.381835938 580.748046875 949.381835938 425 c 2
 949.381835938 175 l 2
 949.381835938 19.251953125 822.415039062 -107.71484375 666.666992188 -107.71484375 c 2
 333.333007812 -107.71484375 l 2
 177.584960938 -107.71484375 50.6181640625 19.251953125 50.6181640625 175 c 2
 50.6181640625 425 l 2
 50.6181640625 580.748046875 177.584960938 707.71484375 333.333007812 707.71484375 c 2
333.333007812 642.28515625 m 2
 212.939453125 642.28515625 116.047851562 545.39453125 116.047851562 425 c 2
 116.047851562 175 l 2
 116.047851562 54.60546875 212.939453125 -42.28515625 333.333007812 -42.28515625 c 2
 666.666992188 -42.28515625 l 2
 787.060546875 -42.28515625 883.952148438 54.60546875 883.952148438 175 c 2
 883.952148438 425 l 2
 883.952148438 545.39453125 787.060546875 642.28515625 666.666992188 642.28515625 c 2
 333.333007812 642.28515625 l 2
250 457.71484375 m 2
 458.333007812 457.71484375 l 2
 458.33984375 457.71484375 l 2
 476.391601562 457.71484375 491.047851562 443.05859375 491.047851562 425.006835938 c 2
 491.047851562 425 l 1
 491.047851562 424.993164062 l 2
 491.047851562 406.94140625 476.392578125 392.28515625 458.33984375 392.28515625 c 2
 458.333007812 392.28515625 l 1
 282.71484375 392.28515625 l 1
 282.71484375 332.71484375 l 1
 398.762695312 332.71484375 l 2
 398.76953125 332.71484375 l 2
 416.821289062 332.71484375 431.477539062 318.05859375 431.477539062 300.006835938 c 2
 431.477539062 300 l 1
 431.477539062 299.993164062 l 2
 431.477539062 281.94140625 416.822265625 267.28515625 398.76953125 267.28515625 c 2
 398.762695312 267.28515625 l 1
 282.71484375 267.28515625 l 1
 282.71484375 175 l 2
 282.71484375 174.993164062 l 2
 282.71484375 156.94140625 268.05859375 142.28515625 250.006835938 142.28515625 c 2
 250 142.28515625 l 1
 249.993164062 142.28515625 l 2
 231.94140625 142.28515625 217.28515625 156.94140625 217.28515625 174.993164062 c 2
 217.28515625 175 l 1
 217.28515625 300 l 1
 217.28515625 300 217.288085938 425.002929688 217.28515625 425 c 1
 217.28515625 443.053710938 231.946289062 457.71484375 250 457.71484375 c 2
544.596679688 457.551757812 m 1
 544.596679688 457.551757812 544.619140625 457.571289062 544.596679688 457.551757812 c 1
 553.498046875 456.756835938 561.400390625 452.409179688 566.813476562 445.915039062 c 2
 645.833007812 351.106445312 l 1
 645.833007812 351.106445312 724.864257812 445.884765625 724.853515625 445.915039062 c 0
 730.85546875 453.130859375 739.91015625 457.697265625 750.020507812 457.697265625 c 0
 757.961914062 457.697265625 765.24609375 454.860351562 770.915039062 450.146484375 c 0
 778.130859375 444.14453125 782.697265625 435.08984375 782.697265625 424.979492188 c 0
 782.697265625 417.038085938 779.860351562 409.75390625 775.146484375 404.084960938 c 2
 688.395507812 300 l 1
 688.395507812 300 775.176757812 195.904296875 775.146484375 195.915039062 c 1
 779.860351562 190.24609375 782.727539062 182.951171875 782.727539062 175.009765625 c 0
 782.727539062 164.900390625 778.130859375 155.85546875 770.915039062 149.853515625 c 0
 765.24609375 145.139648438 757.951171875 142.272460938 750.009765625 142.272460938 c 0
 739.900390625 142.272460938 730.85546875 146.869140625 724.853515625 154.084960938 c 2
 645.833007812 248.893554688 l 1
 645.833007812 248.893554688 566.802734375 154.115234375 566.813476562 154.084960938 c 0
 560.811523438 146.869140625 551.755859375 142.302734375 541.646484375 142.302734375 c 0
 533.705078125 142.302734375 526.419921875 145.139648438 520.751953125 149.853515625 c 0
 513.536132812 155.85546875 508.969726562 164.91015625 508.969726562 175.020507812 c 0
 508.969726562 182.961914062 511.805664062 190.24609375 516.520507812 195.915039062 c 2
 603.271484375 300 l 1
 603.271484375 300 516.490234375 404.095703125 516.520507812 404.084960938 c 1
 511.805664062 409.75390625 508.939453125 417.048828125 508.939453125 424.990234375 c 0
 508.939453125 435.099609375 513.536132812 444.14453125 520.751953125 450.146484375 c 0
 526.416992188 454.84765625 533.678710938 457.686523438 541.608398438 457.686523438 c 0
 542.616210938 457.686523438 543.612304688 457.641601562 544.596679688 457.551757812 c 1
EndSplineSet
EndChar

StartChar: T
Encoding: 84 84 20
Width: 1000
Flags: H
LayerCount: 2
Fore
SplineSet
500 734.92578125 m 2
 500.088867188 734.92578125 l 2
 744.739257812 734.92578125 943.803710938 535.772460938 943.803710938 291.122070312 c 0
 943.803710938 96.6337890625 816.865234375 -75.4931640625 631.037109375 -132.883789062 c 0
 621.618164062 -136.544921875 608.815429688 -135.513671875 595.614257812 -124.8046875 c 0
 536.15234375 -69.876953125 468.954101562 -69.376953125 403.586914062 -125.692382812 c 0
 397.966796875 -130.955078125 383.233398438 -138.646484375 369.051757812 -132.883789062 c 0
 183.223632812 -75.4931640625 56.1962890625 96.6337890625 56.1962890625 291.122070312 c 0
 56.1962890625 535.772460938 255.349609375 734.92578125 500 734.92578125 c 2
500.266601562 552.219726562 m 1
 500.240234375 552.219726562 l 2
 473.893554688 552.219726562 452.50390625 530.830078125 452.50390625 504.483398438 c 2
 452.50390625 504.45703125 l 2
 452.538085938 478.139648438 473.9140625 456.782226562 500.239257812 456.782226562 c 2
 500.266601562 456.782226562 l 1
 500.29296875 456.784179688 l 2
 526.618164062 456.784179688 547.995117188 478.139648438 548.029296875 504.45703125 c 2
 548.029296875 504.483398438 l 2
 548.029296875 530.829101562 526.639648438 552.219726562 500.29296875 552.219726562 c 2
 500.266601562 552.219726562 l 1
355.82421875 508.0078125 m 2
 329.52734375 507.973632812 308.184570312 486.629882812 308.149414062 460.333984375 c 2
 308.151367188 460.307617188 l 2
 308.151367188 433.982421875 329.506835938 412.60546875 355.82421875 412.571289062 c 2
 355.850585938 412.5703125 l 2
 382.196289062 412.5703125 403.586914062 433.9609375 403.586914062 460.306640625 c 2
 403.586914062 460.333984375 l 2
 403.551757812 486.651367188 382.17578125 508.0078125 355.850585938 508.0078125 c 2
 355.82421875 508.0078125 l 2
644.17578125 508.0078125 m 2
 644.149414062 508.006835938 l 2
 617.82421875 508.006835938 596.448242188 486.651367188 596.413085938 460.333984375 c 2
 596.413085938 460.307617188 l 2
 596.413085938 433.9609375 617.802734375 412.571289062 644.149414062 412.571289062 c 2
 644.17578125 412.571289062 l 2
 670.493164062 412.60546875 691.850585938 433.981445312 691.850585938 460.306640625 c 2
 691.850585938 460.333984375 l 2
 691.815429688 486.629882812 670.47265625 507.973632812 644.17578125 508.0078125 c 2
263.05078125 394.7265625 m 2
 263.024414062 394.727539062 l 2
 236.677734375 394.727539062 215.288085938 373.336914062 215.288085938 346.990234375 c 2
 215.288085938 346.963867188 l 1
 215.287109375 346.9375 l 2
 215.287109375 320.590820312 236.676757812 299.201171875 263.0234375 299.201171875 c 2
 263.05078125 299.201171875 l 2
 289.368164062 299.235351562 310.724609375 320.611328125 310.724609375 346.936523438 c 2
 310.724609375 346.963867188 l 1
 310.723632812 346.990234375 l 2
 310.723632812 373.315429688 289.368164062 394.692382812 263.05078125 394.7265625 c 2
737.3046875 394.7265625 m 1
 737.278320312 394.727539062 l 2
 710.931640625 394.727539062 689.541992188 373.336914062 689.541992188 346.990234375 c 2
 689.541992188 346.963867188 l 1
 689.541015625 346.9375 l 2
 689.541015625 320.590820312 710.931640625 299.201171875 737.27734375 299.201171875 c 2
 737.3046875 299.201171875 l 1
 737.331054688 299.200195312 l 2
 763.677734375 299.200195312 785.067382812 320.590820312 785.067382812 346.936523438 c 2
 785.067382812 346.963867188 l 1
 785.068359375 346.990234375 l 2
 785.068359375 373.336914062 763.677734375 394.7265625 737.331054688 394.7265625 c 2
 737.3046875 394.7265625 l 1
EndSplineSet
EndChar

StartChar: U
Encoding: 85 85 21
Width: 1000
Flags: H
LayerCount: 2
Fore
SplineSet
812.663085938 695.426757812 m 0
 840.764648438 695.426757812 869.314453125 686.256835938 891.682617188 666.374023438 c 0
 914.051757812 646.490234375 928.7109375 615.333007812 928.7109375 579.377929688 c 0
 928.7109375 543.423828125 914.051757812 512.34765625 891.682617188 492.463867188 c 0
 869.314453125 472.581054688 840.764648438 463.330078125 812.663085938 463.330078125 c 0
 784.560546875 463.330078125 756.01171875 472.581054688 733.642578125 492.463867188 c 0
 719.899414062 504.6796875 710.735351562 522 704.426757812 541.2109375 c 0
 650.017578125 534.779296875 615.822265625 513.561523438 591.715820312 474.8046875 c 0
 563.534179688 429.497070312 547.569335938 362.6875 531.901367188 292.838867188 c 0
 516.233398438 222.989257812 500.854492188 150.075195312 463.8671875 90.6083984375 c 0
 431.185546875 38.0654296875 373.833007812 3.240234375 298.014648438 -5.3388671875 c 0
 292.6953125 -29.658203125 282.856445312 -51.7080078125 266.357421875 -66.3740234375 c 0
 243.98828125 -86.2568359375 215.439453125 -95.4267578125 187.336914062 -95.4267578125 c 0
 159.235351562 -95.4267578125 130.685546875 -86.2568359375 108.317382812 -66.3740234375 c 0
 85.9482421875 -46.490234375 71.2890625 -15.3330078125 71.2890625 20.6220703125 c 0
 71.2890625 56.576171875 85.9482421875 87.65234375 108.317382812 107.536132812 c 0
 130.685546875 127.418945312 159.235351562 136.669921875 187.336914062 136.669921875 c 0
 215.439453125 136.669921875 243.98828125 127.418945312 266.357421875 107.536132812 c 0
 280.100585938 95.3203125 289.264648438 78 295.573242188 58.7890625 c 0
 349.982421875 65.220703125 384.177734375 86.4384765625 408.284179688 125.1953125 c 0
 436.465820312 170.502929688 452.430664062 237.3125 468.098632812 307.161132812 c 0
 483.766601562 377.010742188 499.145507812 449.924804688 536.1328125 509.391601562 c 0
 568.814453125 561.934570312 626.166992188 596.759765625 701.985351562 605.338867188 c 0
 707.3046875 629.658203125 717.143554688 651.708007812 733.642578125 666.374023438 c 0
 756.01171875 686.256835938 784.560546875 695.426757812 812.663085938 695.426757812 c 0
812.663085938 629.997070312 m 0
 799.09765625 629.997070312 785.98046875 625.358398438 777.099609375 617.463867188 c 0
 768.21875 609.5703125 762.043945312 598.978515625 762.043945312 579.377929688 c 0
 762.043945312 559.77734375 768.21875 549.267578125 777.099609375 541.374023438 c 0
 785.98046875 533.479492188 799.09765625 528.759765625 812.663085938 528.759765625 c 0
 826.227539062 528.759765625 839.344726562 533.479492188 848.225585938 541.374023438 c 0
 857.107421875 549.267578125 863.28125 559.77734375 863.28125 579.377929688 c 0
 863.28125 598.978515625 857.107421875 609.5703125 848.225585938 617.463867188 c 0
 839.344726562 625.358398438 826.227539062 629.997070312 812.663085938 629.997070312 c 0
187.336914062 71.240234375 m 0
 173.772460938 71.240234375 160.655273438 66.5205078125 151.774414062 58.6259765625 c 0
 142.892578125 50.732421875 136.71875 40.22265625 136.71875 20.6220703125 c 0
 136.71875 1.021484375 142.892578125 -9.5703125 151.774414062 -17.4638671875 c 0
 160.655273438 -25.3583984375 173.772460938 -29.9970703125 187.336914062 -29.9970703125 c 0
 200.90234375 -29.9970703125 214.01953125 -25.3583984375 222.900390625 -17.4638671875 c 0
 231.78125 -9.5703125 237.956054688 1.021484375 237.956054688 20.6220703125 c 0
 237.956054688 40.22265625 231.78125 50.732421875 222.900390625 58.6259765625 c 0
 214.01953125 66.5205078125 200.90234375 71.240234375 187.336914062 71.240234375 c 0
EndSplineSet
EndChar

StartChar: V
Encoding: 86 86 22
Width: 1000
Flags: H
LayerCount: 2
Fore
SplineSet
419.8125 578.125 m 0
 430.282226562 573.081054688 437.48828125 562.387695312 437.5 550 c 0
 437.529296875 549.983398438 437.5 50 437.5 50 c 2
 437.475585938 32.7734375 423.482421875 18.794921875 406.25 18.794921875 c 0
 398.88671875 18.794921875 392.09375 21.3583984375 386.75 25.625 c 1
 386.772460938 25.6142578125 239.0625 143.75 239.0625 143.75 c 1
 93.75 143.75 l 2
 76.5029296875 143.75 62.5 157.752929688 62.5 175 c 2
 62.5 425 l 2
 62.5 442.247070312 76.5029296875 456.25 93.75 456.25 c 2
 239.0625 456.25 l 1
 386.75 574.375 l 2
 392.095703125 578.647460938 398.872070312 581.204101562 406.240234375 581.204101562 c 0
 411.08203125 581.204101562 415.719726562 580.094726562 419.8125 578.125 c 0
865.875 447.125 m 0
 871.547851562 441.465820312 875.060546875 433.642578125 875.060546875 425.00390625 c 0
 875.060546875 416.366210938 871.547851562 408.534179688 865.875 402.875 c 1
 865.875 402.8828125 762.9375 300 762.9375 300 c 1
 865.875 197.125 l 2
 871.5390625 191.4609375 875.043945312 183.638671875 875.043945312 175.00390625 c 0
 875.043945312 157.735351562 861.0234375 143.71484375 843.75390625 143.71484375 c 0
 835.120117188 143.71484375 827.2890625 147.2109375 821.625 152.875 c 0
 821.633789062 152.883789062 718.75 255.8125 718.75 255.8125 c 1
 615.875 152.875 l 2
 610.2109375 147.2109375 602.388671875 143.706054688 593.75390625 143.706054688 c 0
 576.485351562 143.706054688 562.46484375 157.7265625 562.46484375 174.99609375 c 0
 562.46484375 183.629882812 565.9609375 191.4609375 571.625 197.125 c 0
 571.633789062 197.116210938 674.5625 300 674.5625 300 c 1
 571.625 402.875 l 2
 565.9609375 408.5390625 562.456054688 416.361328125 562.456054688 424.99609375 c 0
 562.456054688 442.264648438 576.4765625 456.28515625 593.74609375 456.28515625 c 0
 602.379882812 456.28515625 610.2109375 452.7890625 615.875 447.125 c 0
 615.866210938 447.116210938 718.75 344.1875 718.75 344.1875 c 1
 821.625 447.125 l 2
 827.284179688 452.797851562 835.107421875 456.310546875 843.74609375 456.310546875 c 0
 852.383789062 456.310546875 860.215820312 452.797851562 865.875 447.125 c 0
EndSplineSet
EndChar

StartChar: W
Encoding: 87 87 23
Width: 1000
Flags: H
LayerCount: 2
Fore
SplineSet
669.8125 578.125 m 0
 680.282226562 573.081054688 687.48828125 562.387695312 687.5 550 c 0
 687.529296875 549.983398438 687.5 50 687.5 50 c 2
 687.475585938 32.7734375 673.482421875 18.794921875 656.25 18.794921875 c 0
 648.88671875 18.794921875 642.09375 21.3583984375 636.75 25.625 c 1
 636.772460938 25.6142578125 489.0625 143.75 489.0625 143.75 c 1
 343.75 143.75 l 2
 326.502929688 143.75 312.5 157.752929688 312.5 175 c 2
 312.5 425 l 2
 312.5 442.247070312 326.502929688 456.25 343.75 456.25 c 2
 489.0625 456.25 l 1
 636.75 574.375 l 2
 642.095703125 578.647460938 648.872070312 581.204101562 656.240234375 581.204101562 c 0
 661.08203125 581.204101562 665.719726562 580.094726562 669.8125 578.125 c 0
EndSplineSet
EndChar

StartChar: X
Encoding: 88 88 24
Width: 1000
Flags: H
LayerCount: 2
Fore
SplineSet
562.5 550 m 2
 562.5 550 562.477539062 50.0107421875 562.5 50 c 0
 562.475585938 32.7734375 548.459960938 18.806640625 531.227539062 18.806640625 c 0
 523.865234375 18.806640625 517.09375 21.3583984375 511.75 25.625 c 2
 364.0625 143.75 l 1
 218.75 143.75 l 2
 201.502929688 143.75 187.5 157.752929688 187.5 175 c 2
 187.5 425 l 2
 187.5 442.247070312 201.502929688 456.25 218.75 456.25 c 2
 364.0625 456.25 l 1
 364.0625 456.25 511.772460938 574.385742188 511.75 574.375 c 1
 517.09375 578.641601562 523.88671875 581.205078125 531.25 581.205078125 c 0
 548.482421875 581.205078125 562.475585938 567.2265625 562.5 550 c 2
751.5625 300 m 0
 751.5625 299.875976562 751.5625 299.751953125 751.5625 299.627929688 c 0
 751.5625 222.125976562 720.08984375 151.896484375 669.1875 101.125 c 0
 669.146484375 101.155273438 625 145.3125 625 145.3125 c 1
 664.5859375 184.799804688 689.094726562 239.395507812 689.094726562 299.670898438 c 0
 689.094726562 299.772460938 689.0625 299.897460938 689.0625 300 c 0
 689.0625 300.09375 689.0625 300.186523438 689.0625 300.280273438 c 0
 689.0625 360.563476562 664.586914062 415.190429688 625 454.6875 c 0
 624.96875 454.6640625 669.1875 498.875 669.1875 498.875 c 2
 720.08984375 448.103515625 751.603515625 377.904296875 751.603515625 300.40234375 c 0
 751.603515625 300.278320312 751.5625 300.124023438 751.5625 300 c 0
EndSplineSet
EndChar

StartChar: Y
Encoding: 89 89 25
Width: 1000
Flags: H
LayerCount: 2
Fore
SplineSet
721 -75.625 m 0
 676.75 -31.4375 l 1
 761.5625 53.375 814.0625 170.5625 814.0625 300 c 0
 814.0625 300.198242188 814.130859375 300.447265625 814.130859375 300.645507812 c 0
 814.130859375 429.821289062 761.598632812 546.82421875 676.75 631.4375 c 1
 676.75 631.4375 720.922851562 675.568359375 721 675.625 c 0
 817.1640625 579.727539062 876.625 447.063476562 876.625 300.661132812 c 0
 876.625 300.440429688 876.625 300.220703125 876.625 300 c 0
 876.625 299.779296875 876.703125 299.502929688 876.703125 299.282226562 c 0
 876.703125 152.87890625 817.1640625 20.2724609375 721 -75.625 c 0
632.5625 12.75 m 2
 632.5625 12.75 588.387695312 56.91015625 588.4375 56.875 c 0
 650.618164062 118.924804688 689.0625 204.737304688 689.0625 299.435546875 c 0
 689.0625 299.623046875 689.0625 299.811523438 689.0625 300 c 0
 689.0625 300.145507812 689.112304688 300.328125 689.112304688 300.474609375 c 0
 689.112304688 395.204101562 650.592773438 481.006835938 588.375 543.0625 c 1
 588.375 543.0625 632.50390625 587.206054688 632.5625 587.25 c 0
 706.095703125 513.911132812 751.5625 412.459960938 751.5625 300.502929688 c 0
 751.5625 300.3359375 751.5625 300.16796875 751.5625 300 c 0
 751.5625 299.83203125 751.622070312 299.62109375 751.622070312 299.453125 c 0
 751.622070312 187.49609375 706.095703125 86.0888671875 632.5625 12.75 c 2
544.1875 101.125 m 2
 544.1875 101.125 499.96875 145.3359375 500 145.3125 c 0
 539.586914062 184.809570312 564.0625 239.436523438 564.0625 299.719726562 c 0
 564.0625 299.813476562 564.0625 299.90625 564.0625 300 c 0
 564.0625 300.102539062 564.094726562 300.227539062 564.094726562 300.329101562 c 0
 564.094726562 360.604492188 539.5859375 415.200195312 500 454.6875 c 1
 500 454.6875 544.146484375 498.844726562 544.1875 498.875 c 0
 595.08984375 448.103515625 626.5625 377.874023438 626.5625 300.372070312 c 0
 626.5625 300.248046875 626.5625 300.124023438 626.5625 300 c 0
 626.5625 299.875976562 626.603515625 299.721679688 626.603515625 299.59765625 c 0
 626.603515625 222.095703125 595.08984375 151.896484375 544.1875 101.125 c 2
419.8125 578.125 m 0
 430.282226562 573.081054688 437.48828125 562.387695312 437.5 550 c 0
 437.529296875 549.983398438 437.5 50 437.5 50 c 2
 437.475585938 32.7734375 423.482421875 18.794921875 406.25 18.794921875 c 0
 398.88671875 18.794921875 392.09375 21.3583984375 386.75 25.625 c 1
 386.772460938 25.6142578125 239.0625 143.75 239.0625 143.75 c 1
 93.75 143.75 l 2
 76.5029296875 143.75 62.5 157.752929688 62.5 175 c 2
 62.5 425 l 2
 62.5 442.247070312 76.5029296875 456.25 93.75 456.25 c 2
 239.0625 456.25 l 1
 386.75 574.375 l 2
 392.095703125 578.647460938 398.872070312 581.204101562 406.240234375 581.204101562 c 0
 411.08203125 581.204101562 415.719726562 580.094726562 419.8125 578.125 c 0
EndSplineSet
EndChar

StartChar: Z
Encoding: 90 90 26
Width: 1000
Flags: H
LayerCount: 2
Fore
SplineSet
544.1875 706.25 m 2
 687.5 562.9375 l 1
 687.5 643.75 l 2
 687.5 660.997070312 701.502929688 675 718.75 675 c 2
 781.25 675 l 2
 798.497070312 675 812.5 660.997070312 812.5 643.75 c 2
 812.5 437.9375 l 1
 812.5 437.9375 959.616210938 290.866210938 959.625 290.875 c 0
 965.2890625 285.2109375 968.78515625 277.379882812 968.78515625 268.74609375 c 0
 968.78515625 251.4765625 954.764648438 237.456054688 937.49609375 237.456054688 c 0
 928.861328125 237.456054688 921.0390625 240.9609375 915.375 246.625 c 2
 500 662.0625 l 1
 500 662.0625 84.6162109375 246.633789062 84.625 246.625 c 0
 78.9609375 240.9609375 71.1298828125 237.46484375 62.49609375 237.46484375 c 0
 45.2265625 237.46484375 31.2060546875 251.485351562 31.2060546875 268.75390625 c 0
 31.2060546875 277.388671875 34.7109375 285.2109375 40.375 290.875 c 2
 40.375 290.875 455.830078125 706.25 455.8125 706.25 c 1
 467.125 717.559570312 482.764648438 724.557617188 500.008789062 724.557617188 c 0
 517.252929688 724.557617188 532.875 717.559570312 544.1875 706.25 c 2
500 594.1875 m 2
 875 219.1875 l 1
 875 -43.75 l 2
 875 -95.4921875 832.9921875 -137.5 781.25 -137.5 c 2
 218.75 -137.5 l 2
 167.0078125 -137.5 125 -95.4921875 125 -43.75 c 2
 125 219.1875 l 1
 500 594.1875 l 2
EndSplineSet
EndChar

StartChar: bracketleft
Encoding: 91 91 27
Width: 1000
Flags: H
LayerCount: 2
Fore
SplineSet
440.8125 34.5361328125 m 0
 440.8125 67.2216796875 467.254882812 93.6630859375 499.940429688 93.6630859375 c 2
 853.97265625 93.6630859375 l 2
 886.658203125 93.6630859375 913.099609375 67.2216796875 913.099609375 34.5361328125 c 0
 913.099609375 1.8505859375 886.658203125 -24.591796875 853.97265625 -24.591796875 c 2
 499.940429688 -24.591796875 l 2
 467.254882812 -24.591796875 440.8125 1.8505859375 440.8125 34.5361328125 c 0
187.775390625 607.083007812 m 2
 423.918945312 371.306640625 l 1
 423.918945312 371.306640625 l 1
 447.055664062 348.169921875 447.055664062 311.077148438 423.918945312 287.940429688 c 2
 187.775390625 51.796875 l 2
 165.005859375 28.6591796875 127.545898438 28.6591796875 104.409179688 51.796875 c 0
 81.2724609375 74.56640625 81.2724609375 112.026367188 104.409179688 135.163085938 c 2
 298.685546875 329.439453125 l 1
 104.409179688 523.716796875 l 1
 104.409179688 523.716796875 l 1
 81.2724609375 546.486328125 81.2724609375 583.946289062 104.409179688 607.083007812 c 0
 127.178710938 630.219726562 164.638671875 630.219726562 187.775390625 607.083007812 c 2
EndSplineSet
EndChar

StartChar: backslash
Encoding: 92 92 28
Width: 1000
Flags: H
LayerCount: 2
Fore
SplineSet
329.791992188 143.958007812 m 1
 306.458007812 172.5 l 1
 453.958007812 293.333007812 l 1
 302.916992188 420 l 1
 326.666992188 448.541992188 l 1
 512.083007812 292.916992188 l 1
 329.791992188 143.958007812 l 1
510.625 143.958007812 m 1
 487.291992188 172.5 l 1
 634.791992188 293.333007812 l 1
 483.75 420 l 1
 507.708007812 448.541992188 l 1
 692.916992188 292.916992188 l 1
 510.625 143.958007812 l 1
EndSplineSet
EndChar

StartChar: bracketright
Encoding: 93 93 29
Width: 1000
Flags: H
LayerCount: 2
Fore
SplineSet
345.625 464.166992188 m 1
 374.375 487.708007812 l 1
 495 340.208007812 l 1
 621.875 491.25 l 1
 650.208007812 467.291992188 l 1
 494.583007812 282.083007812 l 1
 345.625 464.166992188 l 1
345.625 283.333007812 m 1
 374.375 306.875 l 1
 495 159.166992188 l 1
 621.875 310.208007812 l 1
 650.208007812 286.458007812 l 1
 494.583007812 101.25 l 1
 345.625 283.333007812 l 1
EndSplineSet
EndChar

StartChar: asciicircum
Encoding: 94 94 30
Width: 1000
Flags: HW
LayerCount: 2
Fore
SplineSet
345.625 128.333007812 m 5
 374.375 104.791992188 l 5
 495 252.291992188 l 5
 621.875 101.25 l 5
 650.208007812 125.208007812 l 5
 494.583007812 310.416992188 l 5
 345.625 128.333007812 l 5
345.625 309.166992188 m 5
 374.375 285.625 l 5
 495 433.333007812 l 5
 621.875 282.291992188 l 5
 650.208007812 306.041992188 l 5
 494.583007812 491.25 l 5
 345.625 309.166992188 l 5
EndSplineSet
EndChar

StartChar: underscore
Encoding: 95 95 31
Width: 1000
Flags: H
LayerCount: 2
Fore
SplineSet
477.875 509.625 m 1
 483.534179688 515.297851562 491.357421875 518.810546875 499.99609375 518.810546875 c 0
 508.633789062 518.810546875 516.465820312 515.297851562 522.125 509.625 c 1
 522.1171875 509.625 897.125 134.625 897.125 134.625 c 2
 902.7890625 128.9609375 906.293945312 121.138671875 906.293945312 112.50390625 c 0
 906.293945312 95.2353515625 892.2734375 81.21484375 875.00390625 81.21484375 c 0
 866.370117188 81.21484375 858.5390625 84.7109375 852.875 90.375 c 0
 852.883789062 90.3837890625 500 443.3125 500 443.3125 c 1
 147.125 90.375 l 2
 141.4609375 84.7109375 133.638671875 81.2060546875 125.00390625 81.2060546875 c 0
 107.735351562 81.2060546875 93.71484375 95.2265625 93.71484375 112.49609375 c 0
 93.71484375 121.129882812 97.2109375 128.9609375 102.875 134.625 c 0
 102.883789062 134.616210938 477.875 509.625 477.875 509.625 c 1
EndSplineSet
EndChar

StartChar: grave
Encoding: 96 96 32
Width: 1000
Flags: H
LayerCount: 2
Fore
SplineSet
767.956054688 551.448242188 m 2
 772.09765625 547.302734375 774.661132812 541.580078125 774.661132812 535.263671875 c 0
 774.661132812 531.951171875 773.94140625 528.780273438 772.673828125 525.936523438 c 1
 772.688476562 525.958007812 513.571289062 -57.033203125 513.571289062 -57.033203125 c 2
 510.008789062 -65.0576171875 501.967773438 -70.66015625 492.62890625 -70.66015625 c 0
 483.166992188 -70.66015625 475.060546875 -64.908203125 471.5703125 -56.71484375 c 0
 471.548828125 -56.716796875 378.087890625 161.580078125 378.087890625 161.580078125 c 1
 159.75 255.108398438 l 2
 151.595703125 258.615234375 145.880859375 266.723632812 145.880859375 276.15625 c 0
 145.880859375 285.483398438 151.466796875 293.493164062 159.474609375 297.063476562 c 0
 159.4765625 297.084960938 742.444335938 556.166015625 742.444335938 556.166015625 c 2
 745.280273438 557.424804688 748.41796875 558.124023438 751.71875 558.124023438 c 0
 758.028320312 558.124023438 763.766601562 555.58203125 767.91015625 551.448242188 c 1
 767.888671875 551.43359375 767.956054688 551.448242188 767.956054688 551.448242188 c 2
EndSplineSet
EndChar

StartChar: a
Encoding: 97 97 33
Width: 1000
Flags: H
LayerCount: 2
Fore
SplineSet
500 612.5 m 2
 327.583007812 612.43359375 187.623046875 472.432617188 187.623046875 300 c 0
 187.623046875 127.526367188 327.649414062 -12.5 500.123046875 -12.5 c 0
 672.596679688 -12.5 812.623046875 127.526367188 812.623046875 300 c 0
 812.623046875 346.418945312 802.313476562 390.75390625 784.125 430.375 c 0
 782.622070312 434.032226562 781.79296875 438.037109375 781.79296875 442.233398438 c 0
 781.79296875 459.481445312 795.795898438 473.483398438 813.04296875 473.483398438 c 0
 825.197265625 473.483398438 835.708007812 466.581054688 840.875 456.4375 c 0
 862.697265625 408.895507812 874.8671875 356.016601562 874.8671875 300.318359375 c 0
 874.8671875 93.3505859375 706.834960938 -74.681640625 499.8671875 -74.681640625 c 0
 292.899414062 -74.681640625 124.8671875 93.3505859375 124.8671875 300.318359375 c 0
 124.8671875 507.264648438 293.061523438 674.96484375 500 675 c 1
 499.801757812 675.318359375 500 612.5 500 612.5 c 2
500 520.875 m 2
 500 766.625 l 2
 500.002929688 775.24609375 507.002929688 782.244140625 515.625 782.244140625 c 0
 519.422851562 782.244140625 522.916015625 780.881835938 525.625 778.625 c 1
 525.615234375 778.629882812 673.125 655.75 673.125 655.75 c 2
 680.625 649.5 680.625 638 673.125 631.75 c 2
 525.625 508.875 l 2
 522.916015625 506.618164062 519.432617188 505.260742188 515.634765625 505.260742188 c 0
 507.012695312 505.260742188 500.002929688 512.25390625 500 520.875 c 2
EndSplineSet
EndChar

StartChar: b
Encoding: 98 98 34
Width: 1000
Flags: H
LayerCount: 2
Fore
SplineSet
803.375 790.875 m 0
 803.375 790.875 990.875 603.3671875 990.875 603.375 c 1
 996.547851562 597.715820312 1000.06054688 589.883789062 1000.06054688 581.24609375 c 0
 1000.06054688 572.607421875 996.547851562 564.784179688 990.875 559.125 c 2
 887.9375 456.25 l 1
 656.25 687.9375 l 1
 656.25 687.9375 759.196289062 790.875 759.1875 790.875 c 1
 764.84375 796.529296875 772.6640625 800.029296875 781.28515625 800.029296875 c 0
 789.907226562 800.029296875 797.71875 796.529296875 803.375 790.875 c 0
843.75 412.0625 m 2
 437.5 5.8125 l 1
 437.5 18.75 l 2
 437.5 35.9970703125 423.497070312 50 406.25 50 c 2
 375 50 l 1
 375 81.25 l 2
 375 98.4970703125 360.997070312 112.5 343.75 112.5 c 2
 312.5 112.5 l 1
 312.5 143.75 l 2
 312.5 160.997070312 298.497070312 175 281.25 175 c 2
 250 175 l 1
 250 206.25 l 2
 250 223.497070312 235.997070312 237.5 218.75 237.5 c 2
 205.8125 237.5 l 1
 612.0625 643.75 l 1
 843.75 412.0625 l 2
377 -54.6875 m 2
 377 -54.75 l 1
 377 -54.75 365.887695312 -65.8583984375 365.875 -65.875 c 0
 362.897460938 -68.83203125 359.341796875 -71.1767578125 355.375 -72.75 c 2
 355.375 -72.75 42.869140625 -197.744140625 42.875 -197.75 c 1
 39.2890625 -199.185546875 35.37109375 -199.969726562 31.275390625 -199.969726562 c 0
 14.02734375 -199.969726562 0.025390625 -185.966796875 0.025390625 -168.719726562 c 0
 0.025390625 -164.624023438 0.814453125 -160.7109375 2.25 -157.125 c 2
 2.25 -157.125 127.233398438 155.362304688 127.25 155.375 c 0
 128.823242188 159.341796875 131.16796875 162.897460938 134.125 165.875 c 2
 134.125 165.875 145.327148438 176.989257812 145.3125 177 c 1
 148.711914062 175.720703125 152.407226562 175.005859375 156.25 175 c 2
 187.5 175 l 1
 187.5 143.75 l 2
 187.5 126.502929688 201.502929688 112.5 218.75 112.5 c 2
 250 112.5 l 1
 250 81.25 l 2
 250 64.0029296875 264.002929688 50 281.25 50 c 2
 312.5 50 l 1
 312.5 18.75 l 2
 312.5 1.5029296875 326.502929688 -12.5 343.75 -12.5 c 2
 375 -12.5 l 1
 375 -12.5 375.010742188 -43.7646484375 375 -43.75 c 1
 375.0078125 -47.5927734375 375.721679688 -51.2880859375 377 -54.6875 c 2
EndSplineSet
EndChar

StartChar: c
Encoding: 99 99 35
Width: 1000
Flags: H
LayerCount: 2
Fore
SplineSet
218.75 581.25 m 2
 180.375 636.5 214.125 703.875 272.375 737.5 c 2
 500 348.375 l 1
 727.625 737.5 l 2
 785.875 703.875 819.625 636.5 781.25 581.25 c 2
 550.625 261.875 l 1
 647.875 95.5625 l 2
 669.125 106.385742188 693.173828125 112.490234375 718.63671875 112.490234375 c 0
 804.873046875 112.490234375 874.88671875 42.4765625 874.88671875 -43.759765625 c 0
 874.88671875 -129.997070312 804.873046875 -200.009765625 718.63671875 -200.009765625 c 0
 632.399414062 -200.009765625 562.38671875 -129.997070312 562.38671875 -43.759765625 c 0
 562.38671875 -6.0537109375 575.9765625 28.7431640625 598.25 55.75 c 1
 598.045898438 55.5576171875 500 191.875 500 191.875 c 1
 401.75 55.8125 l 2
 424.0234375 28.8056640625 437.409179688 -5.798828125 437.409179688 -43.5048828125 c 0
 437.409179688 -129.741210938 367.395507812 -199.754882812 281.159179688 -199.754882812 c 0
 194.921875 -199.754882812 124.909179688 -129.741210938 124.909179688 -43.5048828125 c 0
 124.909179688 42.7314453125 194.921875 112.745117188 281.159179688 112.745117188 c 0
 306.622070312 112.745117188 330.875 106.448242188 352.125 95.625 c 1
 351.920898438 95.8173828125 449.375 261.875 449.375 261.875 c 1
 218.75 581.25 l 2
375 -43.75 m 0
 375 7.9921875 332.9921875 50 281.25 50 c 0
 229.5078125 50 187.5 7.9921875 187.5 -43.75 c 0
 187.5 -95.4921875 229.5078125 -137.5 281.25 -137.5 c 0
 332.9921875 -137.5 375 -95.4921875 375 -43.75 c 0
812.5 -43.75 m 0
 812.5 7.9921875 770.4921875 50 718.75 50 c 0
 667.0078125 50 625 7.9921875 625 -43.75 c 0
 625 -95.4921875 667.0078125 -137.5 718.75 -137.5 c 0
 770.4921875 -137.5 812.5 -95.4921875 812.5 -43.75 c 0
EndSplineSet
EndChar

StartChar: d
Encoding: 100 100 36
Width: 1000
Flags: H
LayerCount: 2
Fore
SplineSet
505.375 662.0625 m 2
 528 684.680664062 559.245117188 698.677734375 593.732421875 698.677734375 c 0
 628.220703125 698.677734375 659.5 684.680664062 682.125 662.0625 c 1
 682.08984375 662.0625 924.5625 419.625 924.5625 419.625 c 2
 947.180664062 397 961.177734375 365.754882812 961.177734375 331.267578125 c 0
 961.177734375 296.779296875 947.180664062 265.5 924.5625 242.875 c 1
 924.5625 242.91015625 580.8125 -100.875 580.8125 -100.875 c 2
 558.19140625 -123.502929688 526.928710938 -137.4921875 492.4375 -137.5 c 1
 492.455078125 -137.517578125 320 -137.5 320 -137.5 c 2
 285.508789062 -137.4921875 254.24609375 -123.502929688 231.625 -100.875 c 1
 231.642578125 -100.857421875 75.375 55.375 75.375 55.375 c 2
 52.7568359375 78 38.759765625 109.245117188 38.759765625 143.732421875 c 0
 38.759765625 178.220703125 52.7568359375 209.5 75.375 232.125 c 1
 75.375 232.08984375 505.3125 662.0625 505.3125 662.0625 c 1
 505.375 662.0625 l 2
546.625 -46.6875 m 1
 215.8125 284.125 l 1
 119.625 187.9375 l 2
 108.315429688 176.625 101.317382812 161.002929688 101.317382812 143.758789062 c 0
 101.317382812 126.514648438 108.315429688 110.875 119.625 99.5625 c 1
 119.625 99.580078125 275.875 -56.6875 275.875 -56.6875 c 2
 287.185546875 -68.001953125 302.817382812 -74.99609375 320.0625 -75 c 1
 320.053710938 -75.0087890625 492.5 -75 492.5 -75 c 2
 509.745117188 -74.99609375 525.376953125 -68.001953125 536.6875 -56.6875 c 1
 536.678710938 -56.6787109375 546.6875 -46.6875 546.6875 -46.6875 c 1
 546.625 -46.6875 l 1
EndSplineSet
EndChar

StartChar: e
Encoding: 101 101 37
Width: 1000
Flags: H
LayerCount: 2
Fore
SplineSet
937.5 50 m 1
 687.5 50 l 1
 687.5 -137.5 l 1
 937.5 -137.5 l 1
 937.5 50 l 1
312.5 50 m 1
 62.5 50 l 1
 62.5 -137.5 l 1
 312.5 -137.5 l 1
 312.5 50 l 1
0 300 m 2
 0 575.95703125 224.04296875 800 500 800 c 0
 775.95703125 800 1000 575.95703125 1000 300 c 2
 1000 -200 l 1
 625 -200 l 1
 625 300 l 2
 625 368.989257812 568.989257812 425 500 425 c 0
 431.010742188 425 375 368.989257812 375 300 c 2
 375 -200 l 1
 0 -200 l 1
 0 300 l 2
EndSplineSet
EndChar

StartChar: f
Encoding: 102 102 38
Width: 1000
Flags: H
LayerCount: 2
Fore
SplineSet
406.25 50 m 0
 595.970703125 50 750 204.029296875 750 393.75 c 0
 750 583.470703125 595.970703125 737.5 406.25 737.5 c 0
 216.529296875 737.5 62.5 583.470703125 62.5 393.75 c 0
 62.5 204.029296875 216.529296875 50 406.25 50 c 0
812.5 393.75 m 0
 812.5 169.534179688 630.465820312 -12.5 406.25 -12.5 c 0
 182.034179688 -12.5 0 169.534179688 0 393.75 c 0
 0 617.965820312 182.034179688 800 406.25 800 c 0
 630.465820312 800 812.5 617.965820312 812.5 393.75 c 0
646.5 66.125 m 1
 646.5 66.125 645.936523438 65.498046875 646.5 66.0625 c 0
 680.092773438 90.7734375 709.2109375 119.932617188 733.875 153.5625 c 1
 736.444335938 151.649414062 738.815429688 149.586914062 741.0625 147.3125 c 2
 741.0625 147.3125 981.669921875 -93.330078125 981.6875 -93.3125 c 1
 992.994140625 -104.626953125 999.97265625 -120.265625 999.97265625 -137.508789062 c 0
 999.97265625 -172.010742188 971.961914062 -200.021484375 937.459960938 -200.021484375 c 0
 920.201171875 -200.021484375 904.56640625 -193.01171875 893.25 -181.6875 c 2
 652.625 58.9375 l 2
 650.375 61.25 648.375 63.625 646.5 66.125 c 1
406.25 612.5 m 0
 423.497070312 612.5 437.5 598.497070312 437.5 581.25 c 2
 437.5 425 l 1
 593.75 425 l 2
 610.997070312 425 625 410.997070312 625 393.75 c 0
 625 376.502929688 610.997070312 362.5 593.75 362.5 c 2
 437.5 362.5 l 1
 437.5 206.25 l 2
 437.5 189.002929688 423.497070312 175 406.25 175 c 0
 389.002929688 175 375 189.002929688 375 206.25 c 2
 375 362.5 l 1
 218.75 362.5 l 2
 201.502929688 362.5 187.5 376.502929688 187.5 393.75 c 0
 187.5 410.997070312 201.502929688 425 218.75 425 c 2
 375 425 l 1
 375 581.25 l 2
 375 598.497070312 389.002929688 612.5 406.25 612.5 c 0
EndSplineSet
EndChar

StartChar: g
Encoding: 103 103 39
Width: 1000
Flags: H
LayerCount: 2
Fore
SplineSet
406.25 50 m 0
 595.970703125 50 750 204.029296875 750 393.75 c 0
 750 583.470703125 595.970703125 737.5 406.25 737.5 c 0
 216.529296875 737.5 62.5 583.470703125 62.5 393.75 c 0
 62.5 204.029296875 216.529296875 50 406.25 50 c 0
812.5 393.75 m 0
 812.5 169.534179688 630.465820312 -12.5 406.25 -12.5 c 0
 182.034179688 -12.5 0 169.534179688 0 393.75 c 0
 0 617.965820312 182.034179688 800 406.25 800 c 0
 630.465820312 800 812.5 617.965820312 812.5 393.75 c 0
646.5 66.125 m 1
 646.5 66.125 645.936523438 65.498046875 646.5 66.0625 c 0
 680.092773438 90.7734375 709.2109375 119.932617188 733.875 153.5625 c 1
 736.444335938 151.649414062 738.815429688 149.586914062 741.0625 147.3125 c 2
 741.0625 147.3125 981.669921875 -93.330078125 981.6875 -93.3125 c 1
 992.994140625 -104.626953125 999.97265625 -120.265625 999.97265625 -137.508789062 c 0
 999.97265625 -172.010742188 971.961914062 -200.021484375 937.459960938 -200.021484375 c 0
 920.201171875 -200.021484375 904.56640625 -193.01171875 893.25 -181.6875 c 2
 652.625 58.9375 l 2
 650.375 61.25 648.375 63.625 646.5 66.125 c 1
187.5 393.75 m 0
 187.5 410.997070312 201.502929688 425 218.75 425 c 2
 593.75 425 l 2
 610.997070312 425 625 410.997070312 625 393.75 c 0
 625 376.502929688 610.997070312 362.5 593.75 362.5 c 2
 218.75 362.5 l 2
 201.502929688 362.5 187.5 376.502929688 187.5 393.75 c 0
EndSplineSet
EndChar

StartChar: h
Encoding: 104 104 40
Width: 1000
Flags: H
LayerCount: 2
Fore
SplineSet
406.25 50 m 0
 595.970703125 50 750 204.029296875 750 393.75 c 0
 750 583.470703125 595.970703125 737.5 406.25 737.5 c 0
 216.529296875 737.5 62.5 583.470703125 62.5 393.75 c 0
 62.5 204.029296875 216.529296875 50 406.25 50 c 0
812.5 393.75 m 0
 812.5 169.534179688 630.465820312 -12.5 406.25 -12.5 c 0
 182.034179688 -12.5 0 169.534179688 0 393.75 c 0
 0 617.965820312 182.034179688 800 406.25 800 c 0
 630.465820312 800 812.5 617.965820312 812.5 393.75 c 0
646.5 66.125 m 1
 646.5 66.125 645.936523438 65.498046875 646.5 66.0625 c 0
 680.092773438 90.7734375 709.2109375 119.932617188 733.875 153.5625 c 1
 736.444335938 151.649414062 738.815429688 149.586914062 741.0625 147.3125 c 2
 741.0625 147.3125 981.669921875 -93.330078125 981.6875 -93.3125 c 1
 992.994140625 -104.626953125 999.97265625 -120.265625 999.97265625 -137.508789062 c 0
 999.97265625 -172.010742188 971.961914062 -200.021484375 937.459960938 -200.021484375 c 0
 920.201171875 -200.021484375 904.56640625 -193.01171875 893.25 -181.6875 c 2
 652.625 58.9375 l 2
 650.375 61.25 648.375 63.625 646.5 66.125 c 1
453.91796875 586.254882812 m 2
 453.91796875 603.501953125 439.916015625 617.504882812 422.66796875 617.504882812 c 0
 405.420898438 617.504882812 391.41796875 603.501953125 391.41796875 586.254882812 c 2
 391.41796875 201.245117188 l 2
 391.41796875 183.998046875 405.420898438 169.995117188 422.66796875 169.995117188 c 0
 439.916015625 169.995117188 453.91796875 183.998046875 453.91796875 201.245117188 c 2
 453.91796875 586.254882812 l 2
501.708984375 153.576171875 m 2
 518.956054688 153.576171875 532.958984375 167.579101562 532.958984375 184.826171875 c 0
 532.958984375 202.07421875 518.956054688 216.076171875 501.708984375 216.076171875 c 2
 343.689453125 216.076171875 l 2
 326.44140625 216.076171875 312.439453125 202.07421875 312.439453125 184.826171875 c 0
 312.439453125 167.579101562 326.44140625 153.576171875 343.689453125 153.576171875 c 2
 501.708984375 153.576171875 l 2
442.571289062 562.168945312 m 2
 465.061523438 580.780273438 451.734375 617.504882812 422.66796875 617.504882812 c 0
 415.108398438 617.504882812 408.172851562 614.814453125 402.765625 610.340820312 c 2
 331.29296875 551.197265625 l 2
 308.802734375 532.586914062 322.129882812 495.861328125 351.196289062 495.861328125 c 0
 358.755859375 495.861328125 365.692382812 498.551757812 371.099609375 503.026367188 c 2
 442.571289062 562.168945312 l 2
EndSplineSet
EndChar

StartChar: i
Encoding: 105 105 41
Width: 1000
Flags: H
LayerCount: 2
Fore
SplineSet
237.916992188 379.375 m 1
 762.083007812 379.375 l 1
 500 155.833007812 l 1
 237.916992188 379.375 l 1
EndSplineSet
EndChar

StartChar: j
Encoding: 106 106 42
Width: 1000
Flags: H
LayerCount: 2
Fore
SplineSet
438.633789062 609.534179688 m 0
 438.633789062 619.51953125 440.505859375 628.568359375 443.938476562 636.056640625 c 0
 447.370117188 643.544921875 452.05078125 650.09765625 457.979492188 655.40234375 c 0
 463.595703125 660.70703125 470.1484375 664.451171875 477.325195312 666.947265625 c 0
 484.501953125 669.444335938 491.678710938 671.00390625 499.16796875 671.00390625 c 0
 506.65625 671.00390625 514.145507812 669.755859375 521.633789062 666.947265625 c 0
 529.122070312 664.451171875 535.674804688 660.395507812 541.603515625 655.40234375 c 0
 547.532226562 650.41015625 552.212890625 643.857421875 555.95703125 636.056640625 c 0
 559.701171875 628.255859375 561.573242188 619.20703125 561.573242188 609.221679688 c 0
 561.573242188 592.99609375 557.517578125 580.203125 549.404296875 570.842773438 c 0
 541.291992188 561.481445312 531.619140625 554.928710938 520.073242188 551.49609375 c 2
 575.615234375 306.240234375 l 1
 652.374023438 520.29296875 l 1
 639.893554688 524.349609375 630.220703125 531.21484375 622.731445312 541.51171875 c 0
 615.243164062 551.80859375 611.498046875 563.666015625 611.498046875 577.39453125 c 0
 611.498046875 587.379882812 613.37109375 596.428710938 617.115234375 604.229492188 c 0
 620.859375 612.030273438 625.540039062 618.583007812 631.780273438 623.575195312 c 0
 637.708984375 628.879882812 644.573242188 632.624023438 651.75 635.120117188 c 0
 658.926757812 637.6171875 666.416015625 639.176757812 673.904296875 639.176757812 c 0
 681.393554688 639.176757812 688.881835938 637.928710938 696.37109375 635.120117188 c 0
 703.859375 632.624023438 710.412109375 628.568359375 716.340820312 623.575195312 c 0
 722.26953125 618.270507812 726.950195312 612.030273438 730.381835938 604.229492188 c 0
 733.814453125 596.428710938 735.686523438 587.379882812 735.686523438 577.39453125 c 0
 735.686523438 570.21875 734.438476562 563.353515625 731.942382812 556.489257812 c 0
 729.446289062 549.624023438 726.013671875 543.6953125 721.333007812 538.391601562 c 0
 716.65234375 533.086914062 711.348632812 528.40625 704.795898438 524.662109375 c 0
 698.243164062 520.91796875 691.06640625 518.420898438 682.953125 517.485351562 c 2
 703.235351562 297.19140625 l 1
 805.893554688 454.455078125 l 1
 796.532226562 459.759765625 789.043945312 466.936523438 783.426757812 476.609375 c 0
 777.810546875 486.282226562 775.001953125 496.891601562 775.001953125 508.436523438 c 0
 775.001953125 518.420898438 776.875 527.469726562 780.619140625 534.958984375 c 0
 784.36328125 542.447265625 789.043945312 549 794.97265625 554.3046875 c 0
 800.901367188 559.609375 807.453125 563.353515625 814.942382812 565.849609375 c 0
 822.430664062 568.345703125 829.919921875 569.90625 837.408203125 569.90625 c 0
 844.897460938 569.90625 852.385742188 568.658203125 859.5625 565.849609375 c 0
 866.739257812 563.041992188 873.291992188 559.296875 878.908203125 554.3046875 c 0
 884.525390625 549 889.205078125 542.759765625 892.637695312 534.958984375 c 0
 896.381835938 527.469726562 897.942382812 518.420898438 897.942382812 508.436523438 c 0
 897.942382812 500.635742188 896.694335938 493.146484375 893.885742188 485.658203125 c 0
 891.078125 478.481445312 887.021484375 471.928710938 882.028320312 466.3125 c 0
 877.036132812 460.6953125 871.107421875 456.015625 863.619140625 452.89453125 c 0
 856.129882812 449.774414062 847.705078125 447.90234375 838.344726562 447.90234375 c 2
 829.919921875 447.90234375 l 1
 789.66796875 182.052734375 l 1
 789.66796875 -51.9697265625 l 2
 742.55078125 -58.5224609375 694.186523438 -63.203125 643.94921875 -66.3232421875 c 0
 593.712890625 -69.4443359375 545.66015625 -71.00390625 499.16796875 -71.00390625 c 0
 451.426757812 -71.00390625 403.0625 -69.4443359375 353.76171875 -66.3232421875 c 0
 304.4609375 -63.203125 256.408203125 -58.5224609375 209.603515625 -51.9697265625 c 2
 209.603515625 182.052734375 l 1
 170.288085938 447.90234375 l 1
 161.86328125 447.90234375 l 2
 152.501953125 447.90234375 144.077148438 449.462890625 136.587890625 452.89453125 c 0
 129.099609375 456.015625 122.859375 460.6953125 117.5546875 466.3125 c 0
 112.25 471.928710938 108.505859375 478.481445312 105.697265625 485.658203125 c 0
 102.888671875 492.834960938 101.640625 500.635742188 101.640625 508.436523438 c 0
 101.640625 518.420898438 103.512695312 527.469726562 106.9453125 534.958984375 c 0
 110.689453125 542.447265625 115.05859375 549 120.987304688 554.3046875 c 0
 126.603515625 559.609375 133.15625 563.353515625 140.333007812 565.849609375 c 0
 147.509765625 568.345703125 154.998046875 569.90625 162.487304688 569.90625 c 0
 169.975585938 569.90625 177.463867188 568.658203125 184.953125 565.849609375 c 0
 192.44140625 563.353515625 198.994140625 559.296875 204.922851562 554.3046875 c 0
 210.8515625 549 215.532226562 542.759765625 219.276367188 534.958984375 c 0
 223.020507812 527.469726562 224.892578125 518.420898438 224.892578125 508.436523438 c 0
 224.892578125 496.891601562 222.084960938 485.969726562 216.467773438 476.609375 c 0
 210.8515625 466.936523438 203.36328125 459.759765625 194.001953125 454.455078125 c 1
 296.66015625 297.19140625 l 1
 316.94140625 517.485351562 l 2
 308.829101562 518.420898438 301.65234375 520.91796875 295.099609375 524.662109375 c 0
 288.546875 528.40625 283.2421875 533.086914062 278.5625 538.391601562 c 0
 273.881835938 543.6953125 270.44921875 549.936523438 267.953125 556.489257812 c 0
 265.45703125 563.353515625 264.208984375 570.21875 264.208984375 577.39453125 c 0
 264.208984375 587.379882812 266.081054688 596.428710938 269.513671875 604.229492188 c 0
 272.9453125 612.030273438 277.938476562 618.583007812 283.5546875 623.575195312 c 0
 289.483398438 628.879882812 296.036132812 632.624023438 303.524414062 635.120117188 c 0
 311.013671875 637.6171875 318.501953125 639.176757812 325.991210938 639.176757812 c 0
 333.166992188 639.176757812 340.34375 637.928710938 347.833007812 635.120117188 c 0
 355.321289062 632.624023438 361.874023438 628.568359375 368.115234375 623.575195312 c 0
 374.04296875 618.270507812 379.036132812 612.030273438 382.780273438 604.229492188 c 0
 386.524414062 596.428710938 388.396484375 587.379882812 388.396484375 577.39453125 c 0
 388.396484375 563.666015625 384.65234375 551.80859375 377.1640625 541.51171875 c 0
 369.674804688 531.21484375 359.690429688 524.349609375 347.520507812 520.29296875 c 1
 424.280273438 306.240234375 l 1
 479.821289062 551.49609375 l 2
 468.588867188 554.928710938 458.603515625 561.481445312 450.491210938 570.842773438 c 0
 442.690429688 580.515625 438.633789062 593.30859375 438.633789062 609.534179688 c 0
130.34765625 518.109375 m 0
 130.34765625 510.620117188 132.84375 504.379882812 138.1484375 499.075195312 c 0
 143.453125 493.770507812 149.693359375 491.274414062 157.182617188 491.274414062 c 0
 164.670898438 491.274414062 170.912109375 493.770507812 176.215820312 499.075195312 c 0
 181.520507812 504.379882812 184.016601562 510.620117188 184.016601562 518.109375 c 0
 184.016601562 525.59765625 181.520507812 531.838867188 176.215820312 537.142578125 c 0
 170.912109375 542.447265625 164.670898438 544.943359375 157.182617188 544.943359375 c 0
 149.693359375 544.943359375 143.453125 542.447265625 138.1484375 537.142578125 c 0
 132.84375 531.838867188 130.34765625 525.59765625 130.34765625 518.109375 c 0
240.182617188 211.383789062 m 2
 243.302734375 211.6953125 247.670898438 212.0078125 253.288085938 212.0078125 c 0
 258.904296875 212.0078125 264.833007812 212.319335938 271.385742188 212.631835938 c 1
 211.475585938 368.334960938 l 1
 240.182617188 211.383789062 l 2
499.16796875 165.203125 m 0
 479.509765625 165.203125 457.66796875 164.890625 434.265625 163.955078125 c 0
 410.86328125 163.018554688 387.1484375 162.083007812 363.74609375 160.522460938 c 0
 340.34375 158.961914062 317.56640625 157.08984375 296.036132812 154.90625 c 0
 274.505859375 152.721679688 255.784179688 149.913085938 240.182617188 147.10546875 c 1
 256.719726562 145.544921875 276.377929688 143.984375 299.15625 142.736328125 c 0
 321.934570312 141.48828125 345.024414062 140.552734375 369.05078125 139.616210938 c 0
 392.765625 138.680664062 416.16796875 138.368164062 439.2578125 138.056640625 c 0
 462.34765625 137.744140625 482.629882812 137.432617188 500.103515625 137.432617188 c 0
 517.577148438 137.432617188 537.546875 137.432617188 559.389648438 138.056640625 c 0
 581.543945312 138.368164062 604.009765625 138.9921875 627.412109375 139.616210938 c 0
 650.814453125 140.240234375 673.592773438 141.176757812 696.05859375 142.424804688 c 0
 718.525390625 143.360351562 738.806640625 144.609375 756.904296875 146.168945312 c 1
 741.926757812 148.665039062 723.829101562 151.161132812 702.611328125 153.345703125 c 0
 681.393554688 155.530273438 658.926757812 157.713867188 635.524414062 159.5859375 c 0
 612.123046875 161.458984375 588.408203125 162.70703125 564.381835938 163.642578125 c 0
 540.66796875 164.579101562 518.825195312 165.203125 499.16796875 165.203125 c 0
499.16796875 87.8193359375 m 0
 479.509765625 87.8193359375 457.66796875 87.5078125 434.265625 86.5712890625 c 0
 410.86328125 85.634765625 387.1484375 84.69921875 363.74609375 83.138671875 c 0
 340.34375 81.5791015625 317.56640625 79.70703125 296.036132812 77.5224609375 c 0
 274.505859375 75.337890625 255.784179688 72.5302734375 240.182617188 69.7216796875 c 1
 256.719726562 68.1611328125 276.377929688 66.6015625 299.15625 65.353515625 c 0
 321.934570312 64.10546875 345.024414062 63.1689453125 369.05078125 62.232421875 c 0
 392.765625 61.296875 416.16796875 60.984375 439.2578125 60.6728515625 c 0
 462.34765625 60.3603515625 482.629882812 60.048828125 500.103515625 60.048828125 c 0
 517.577148438 60.048828125 537.546875 60.048828125 559.389648438 60.6728515625 c 0
 581.543945312 60.984375 604.009765625 61.6083984375 627.412109375 62.232421875 c 0
 650.814453125 62.857421875 673.592773438 63.79296875 696.05859375 65.041015625 c 0
 718.525390625 65.9775390625 738.806640625 67.2255859375 756.904296875 68.78515625 c 1
 741.926757812 71.2822265625 723.829101562 73.7783203125 702.611328125 75.9619140625 c 0
 681.393554688 78.146484375 658.926757812 80.3310546875 635.524414062 82.203125 c 0
 612.123046875 84.0751953125 588.408203125 85.3232421875 564.381835938 86.2587890625 c 0
 540.66796875 87.1953125 518.825195312 87.8193359375 499.16796875 87.8193359375 c 0
499.16796875 7.00390625 m 0
 479.509765625 7.00390625 457.66796875 6.69140625 434.265625 5.755859375 c 0
 410.86328125 4.8193359375 387.1484375 3.8828125 363.74609375 2.3232421875 c 0
 340.34375 0.7626953125 317.56640625 -1.109375 296.036132812 -3.2939453125 c 0
 274.505859375 -5.4775390625 255.784179688 -8.2861328125 240.182617188 -11.09375 c 1
 256.719726562 -12.654296875 276.377929688 -14.21484375 299.15625 -15.462890625 c 0
 321.934570312 -16.7109375 345.024414062 -17.958984375 369.05078125 -18.5830078125 c 0
 392.765625 -19.51953125 416.16796875 -19.8310546875 439.2578125 -20.1435546875 c 0
 462.34765625 -20.455078125 482.629882812 -20.767578125 500.103515625 -20.767578125 c 0
 517.577148438 -20.767578125 537.546875 -20.767578125 559.389648438 -20.1435546875 c 0
 581.543945312 -19.8310546875 604.009765625 -19.20703125 627.412109375 -18.5830078125 c 0
 650.814453125 -17.646484375 673.592773438 -17.0224609375 696.05859375 -15.7744140625 c 0
 718.525390625 -14.8388671875 738.806640625 -13.5908203125 756.904296875 -12.0302734375 c 1
 741.926757812 -9.5341796875 723.829101562 -7.0380859375 702.611328125 -4.853515625 c 0
 681.393554688 -2.6689453125 658.926757812 -0.4853515625 635.524414062 1.38671875 c 0
 612.123046875 3.2587890625 588.408203125 4.5068359375 564.381835938 5.443359375 c 0
 540.66796875 6.69140625 518.825195312 7.00390625 499.16796875 7.00390625 c 0
293.227539062 587.068359375 m 0
 293.227539062 579.579101562 295.723632812 573.338867188 301.028320312 568.034179688 c 0
 306.333007812 562.729492188 312.573242188 560.233398438 320.0625 560.233398438 c 0
 327.55078125 560.233398438 333.791992188 562.729492188 339.095703125 568.034179688 c 0
 344.400390625 573.338867188 346.896484375 579.579101562 346.896484375 587.068359375 c 0
 346.896484375 594.556640625 344.400390625 600.796875 339.095703125 606.1015625 c 0
 333.791992188 611.40625 327.55078125 613.90234375 320.0625 613.90234375 c 0
 312.573242188 613.90234375 306.333007812 611.40625 301.028320312 606.1015625 c 0
 296.036132812 600.796875 293.227539062 594.556640625 293.227539062 587.068359375 c 0
320.998046875 215.439453125 m 1
 328.487304688 216.063476562 336.288085938 216.375976562 344.088867188 216.6875 c 0
 351.889648438 217 360.314453125 217 368.739257812 217.311523438 c 1
 341.591796875 438.229492188 l 1
 320.998046875 215.439453125 l 1
500.103515625 498.451171875 m 1
 437.385742188 218.560546875 l 1
 447.994140625 218.872070312 458.916015625 219.184570312 469.524414062 219.184570312 c 0
 480.133789062 219.49609375 490.430664062 219.49609375 500.103515625 219.49609375 c 1
 500.103515625 498.451171875 l 1
467.340820312 619.20703125 m 0
 467.340820312 611.71875 469.836914062 605.477539062 475.141601562 600.172851562 c 0
 480.4453125 594.869140625 486.686523438 592.372070312 494.174804688 592.372070312 c 0
 501.6640625 592.372070312 507.904296875 594.869140625 513.208984375 600.172851562 c 0
 518.513671875 605.477539062 521.009765625 611.71875 521.009765625 619.20703125 c 0
 521.009765625 626.6953125 518.513671875 632.936523438 513.208984375 638.241210938 c 0
 507.904296875 643.544921875 501.6640625 646.041992188 494.174804688 646.041992188 c 0
 486.686523438 646.041992188 480.4453125 643.544921875 475.141601562 638.241210938 c 0
 470.1484375 632.936523438 467.340820312 626.6953125 467.340820312 619.20703125 c 0
657.3671875 438.541015625 m 1
 583.727539062 218.560546875 l 1
 586.84765625 218.560546875 590.904296875 218.560546875 595.584960938 218.248046875 c 0
 600.265625 217.935546875 604.633789062 217.935546875 609.314453125 217.624023438 c 0
 613.682617188 217.624023438 618.05078125 217.311523438 622.107421875 217 c 0
 626.1640625 216.6875 629.596679688 216.6875 632.092773438 216.6875 c 2
 657.3671875 438.541015625 l 1
640.205078125 587.068359375 m 0
 640.205078125 579.579101562 642.701171875 573.338867188 648.005859375 568.034179688 c 0
 652.999023438 562.729492188 659.55078125 560.233398438 667.040039062 560.233398438 c 0
 674.528320312 560.233398438 680.76953125 562.729492188 686.07421875 568.034179688 c 0
 691.377929688 573.338867188 693.875 579.579101562 693.875 587.068359375 c 0
 693.875 594.556640625 691.377929688 600.796875 686.07421875 606.1015625 c 0
 680.76953125 611.40625 674.528320312 613.90234375 667.040039062 613.90234375 c 0
 659.55078125 613.90234375 653.310546875 611.40625 648.005859375 606.1015625 c 0
 642.701171875 600.796875 640.205078125 594.556640625 640.205078125 587.068359375 c 0
788.731445312 368.646484375 m 1
 695.434570312 213.879882812 l 1
 700.115234375 213.567382812 705.419921875 213.255859375 711.66015625 213.255859375 c 0
 717.900390625 213.255859375 724.453125 212.943359375 731.005859375 212.631835938 c 2
 788.731445312 368.646484375 l 1
804.333007812 518.109375 m 0
 804.333007812 510.620117188 806.829101562 504.379882812 812.133789062 499.075195312 c 0
 817.438476562 493.770507812 823.678710938 491.274414062 831.16796875 491.274414062 c 0
 838.65625 491.274414062 844.897460938 493.770507812 850.202148438 499.075195312 c 0
 855.505859375 504.379882812 858.002929688 510.620117188 858.002929688 518.109375 c 0
 858.002929688 525.59765625 855.505859375 531.838867188 850.202148438 537.142578125 c 0
 844.897460938 542.447265625 838.65625 544.943359375 831.16796875 544.943359375 c 0
 823.678710938 544.943359375 817.126953125 542.135742188 812.133789062 537.142578125 c 0
 806.829101562 531.838867188 804.333007812 525.59765625 804.333007812 518.109375 c 0
EndSplineSet
EndChar

StartChar: k
Encoding: 107 107 43
Width: 1000
Flags: H
LayerCount: 2
Fore
SplineSet
437.5 675 m 0
 437.5 640.504882812 409.495117188 612.5 375 612.5 c 0
 340.504882812 612.5 312.5 640.504882812 312.5 675 c 0
 312.5 709.495117188 340.504882812 737.5 375 737.5 c 0
 409.495117188 737.5 437.5 709.495117188 437.5 675 c 0
625 675 m 0
 625 640.504882812 596.995117188 612.5 562.5 612.5 c 0
 528.004882812 612.5 500 640.504882812 500 675 c 0
 500 709.495117188 528.004882812 737.5 562.5 737.5 c 0
 596.995117188 737.5 625 709.495117188 625 675 c 0
437.5 487.5 m 0
 437.5 453.004882812 409.495117188 425 375 425 c 0
 340.504882812 425 312.5 453.004882812 312.5 487.5 c 0
 312.5 521.995117188 340.504882812 550 375 550 c 0
 409.495117188 550 437.5 521.995117188 437.5 487.5 c 0
625 487.5 m 0
 625 453.004882812 596.995117188 425 562.5 425 c 0
 528.004882812 425 500 453.004882812 500 487.5 c 0
 500 521.995117188 528.004882812 550 562.5 550 c 0
 596.995117188 550 625 521.995117188 625 487.5 c 0
437.5 300 m 0
 437.5 265.504882812 409.495117188 237.5 375 237.5 c 0
 340.504882812 237.5 312.5 265.504882812 312.5 300 c 0
 312.5 334.495117188 340.504882812 362.5 375 362.5 c 0
 409.495117188 362.5 437.5 334.495117188 437.5 300 c 0
625 300 m 0
 625 265.504882812 596.995117188 237.5 562.5 237.5 c 0
 528.004882812 237.5 500 265.504882812 500 300 c 0
 500 334.495117188 528.004882812 362.5 562.5 362.5 c 0
 596.995117188 362.5 625 334.495117188 625 300 c 0
437.5 112.5 m 0
 437.5 78.0048828125 409.495117188 50 375 50 c 0
 340.504882812 50 312.5 78.0048828125 312.5 112.5 c 0
 312.5 146.995117188 340.504882812 175 375 175 c 0
 409.495117188 175 437.5 146.995117188 437.5 112.5 c 0
625 112.5 m 0
 625 78.0048828125 596.995117188 50 562.5 50 c 0
 528.004882812 50 500 78.0048828125 500 112.5 c 0
 500 146.995117188 528.004882812 175 562.5 175 c 0
 596.995117188 175 625 146.995117188 625 112.5 c 0
437.5 -75 m 0
 437.5 -109.495117188 409.495117188 -137.5 375 -137.5 c 0
 340.504882812 -137.5 312.5 -109.495117188 312.5 -75 c 0
 312.5 -40.5048828125 340.504882812 -12.5 375 -12.5 c 0
 409.495117188 -12.5 437.5 -40.5048828125 437.5 -75 c 0
625 -75 m 0
 625 -109.495117188 596.995117188 -137.5 562.5 -137.5 c 0
 528.004882812 -137.5 500 -109.495117188 500 -75 c 0
 500 -40.5048828125 528.004882812 -12.5 562.5 -12.5 c 0
 596.995117188 -12.5 625 -40.5048828125 625 -75 c 0
EndSplineSet
EndChar

StartChar: l
Encoding: 108 108 44
Width: 1000
Flags: H
LayerCount: 2
Fore
SplineSet
125 300 m 0
 159.495117188 300 187.5 271.995117188 187.5 237.5 c 0
 187.5 203.004882812 159.495117188 175 125 175 c 0
 90.5048828125 175 62.5 203.004882812 62.5 237.5 c 0
 62.5 271.995117188 90.5048828125 300 125 300 c 0
125 487.5 m 0
 159.495117188 487.5 187.5 459.495117188 187.5 425 c 0
 187.5 390.504882812 159.495117188 362.5 125 362.5 c 0
 90.5048828125 362.5 62.5 390.504882812 62.5 425 c 0
 62.5 459.495117188 90.5048828125 487.5 125 487.5 c 0
312.5 300 m 0
 346.995117188 300 375 271.995117188 375 237.5 c 0
 375 203.004882812 346.995117188 175 312.5 175 c 0
 278.004882812 175 250 203.004882812 250 237.5 c 0
 250 271.995117188 278.004882812 300 312.5 300 c 0
312.5 487.5 m 0
 346.995117188 487.5 375 459.495117188 375 425 c 0
 375 390.504882812 346.995117188 362.5 312.5 362.5 c 0
 278.004882812 362.5 250 390.504882812 250 425 c 0
 250 459.495117188 278.004882812 487.5 312.5 487.5 c 0
500 300 m 0
 534.495117188 300 562.5 271.995117188 562.5 237.5 c 0
 562.5 203.004882812 534.495117188 175 500 175 c 0
 465.504882812 175 437.5 203.004882812 437.5 237.5 c 0
 437.5 271.995117188 465.504882812 300 500 300 c 0
500 487.5 m 0
 534.495117188 487.5 562.5 459.495117188 562.5 425 c 0
 562.5 390.504882812 534.495117188 362.5 500 362.5 c 0
 465.504882812 362.5 437.5 390.504882812 437.5 425 c 0
 437.5 459.495117188 465.504882812 487.5 500 487.5 c 0
687.5 300 m 0
 721.995117188 300 750 271.995117188 750 237.5 c 0
 750 203.004882812 721.995117188 175 687.5 175 c 0
 653.004882812 175 625 203.004882812 625 237.5 c 0
 625 271.995117188 653.004882812 300 687.5 300 c 0
687.5 487.5 m 0
 721.995117188 487.5 750 459.495117188 750 425 c 0
 750 390.504882812 721.995117188 362.5 687.5 362.5 c 0
 653.004882812 362.5 625 390.504882812 625 425 c 0
 625 459.495117188 653.004882812 487.5 687.5 487.5 c 0
875 300 m 0
 909.495117188 300 937.5 271.995117188 937.5 237.5 c 0
 937.5 203.004882812 909.495117188 175 875 175 c 0
 840.504882812 175 812.5 203.004882812 812.5 237.5 c 0
 812.5 271.995117188 840.504882812 300 875 300 c 0
875 487.5 m 0
 909.495117188 487.5 937.5 459.495117188 937.5 425 c 0
 937.5 390.504882812 909.495117188 362.5 875 362.5 c 0
 840.504882812 362.5 812.5 390.504882812 812.5 425 c 0
 812.5 459.495117188 840.504882812 487.5 875 487.5 c 0
EndSplineSet
EndChar
